<?xml version="1.0" encoding="utf-8"?>
<!-- Generator: Adobe Illustrator 27.9.4, SVG Export Plug-In . SVG Version: 9.03 Build 54784)  -->
<svg version="1.1"
	 id="svg8563" xmlns:sodipodi="http://sodipodi.sourceforge.net/DTD/sodipodi-0.dtd" xmlns:inkscape="http://www.inkscape.org/namespaces/inkscape" xmlns:svg="http://www.w3.org/2000/svg" sodipodi:docname="cvpr-navbar-logo.svg"
	 xmlns="http://www.w3.org/2000/svg" xmlns:xlink="http://www.w3.org/1999/xlink" x="0px" y="0px" viewBox="0 0 332.8 89.9"
	 style="enable-background:new 0 0 332.8 89.9;" xml:space="preserve">
<style type="text/css">
	.st0{clip-path:url(#SVGID_00000065072947250985762670000016298358327981394310_);}
	.st1{fill:#1A407F;}
</style>
<sodipodi:namedview  bordercolor="#000000" borderopacity="0.25" id="namedview8565" inkscape:current-layer="g8571" inkscape:cx="165.03213" inkscape:cy="-292.53359" inkscape:deskcolor="#d1d1d1" inkscape:pagecheckerboard="0" inkscape:pageopacity="0.0" inkscape:showpageshadow="2" inkscape:window-height="1205" inkscape:window-maximized="0" inkscape:window-width="1419" inkscape:window-x="667" inkscape:window-y="318" inkscape:zoom="0.97253788" pagecolor="#1a407f" showgrid="false">
	<inkscape:page  height="121.557" id="page8569" width="364.258" x="0" y="0"></inkscape:page>
</sodipodi:namedview>
<g id="g8571" transform="matrix(1.3333333,0,0,-1.3333333,-254.17199,222.25039)" inkscape:groupmode="layer" inkscape:label="Page 1">
	<g id="g8591" transform="translate(11.567673,-1.7541385)">
		<g>
			<defs>
				<rect id="SVGID_1_" x="83.2" y="22.3" width="422.8" height="173.6"/>
			</defs>
			<clipPath id="SVGID_00000131327575922357063410000009802682719091028393_">
				<use xlink:href="#SVGID_1_"  style="overflow:visible;"/>
			</clipPath>
			<g id="g8593" style="clip-path:url(#SVGID_00000131327575922357063410000009802682719091028393_);">
				<g id="g8599" transform="translate(368.2877,118.0224)">
					<path id="path8601" class="st1" d="M-11.6,0C-15.3,0-18,3.2-18,7.1v0.1c0,3.8,2.7,7,6.4,7c2.2,0,3.9-1,5.6-2.5l3.1,3.6
						c-2,2.1-4.5,3.5-8.7,3.5c-6.8,0-11.5-5.2-11.5-11.6V7c0-6.4,4.8-11.5,11.3-11.5c4.2,0,6.8,1.5,9,4l-3.1,3.2
						C-7.5,1-9.1,0-11.6,0"/>
				</g>
				<g id="g8603" transform="translate(388.5233,120.4916)">
					<path id="path8605" class="st1" d="M-11.6,0l-5.8,15.8h-5.4l8.9-22.6h4.3l8.9,22.6h-5.2L-11.6,0z"/>
				</g>
				<g id="g8607" transform="translate(406.1789,131.8426)">
					<path id="path8609" class="st1" d="M-11.6,0h3.7c2.4,0,3.9-1.2,3.9-3.4v-0.1c0-1.9-1.4-3.4-3.8-3.4h-3.8V0z M-11.6-11.3h3.7
						c4.9,0,8.9,2.7,8.9,7.9v0.1c0,4.6-3.2,7.8-8.4,7.8h-9V-18h4.8V-11.3z"/>
				</g>
				<g id="g8611" transform="translate(425.6287,131.8426)">
					<path id="path8613" class="st1" d="M-11.6,0h4.8c2.4,0,3.8-1.1,3.8-3.2v-0.1c0-1.9-1.4-3.2-3.7-3.2h-4.9V0z M-11.6-10.8h3.8
						L-3-18h5.7l-5.4,8C0-8.9,2-6.6,2-3v0.1c0,2.1-0.7,3.9-1.9,5.1c-1.4,1.5-3.6,2.3-6.4,2.3h-10.1V-18h4.8V-10.8z"/>
				</g>
				<g id="g8615" transform="translate(359.4684,105.9996)">
					<path id="path8617" class="st1" d="M-11.6,0c0-0.8-0.3-1.1-0.9-1.1c-0.5,0-0.8,0.2-1.2,0.7l-0.9-1c0.5-0.5,1.1-1,2.2-1
						c0.7,0,1.3,0.2,1.7,0.6c0.4,0.4,0.6,1,0.6,1.8v4.4h-1.5V0z"/>
				</g>
				<g id="g8619" transform="translate(366.712,106.4756)">
					<path id="path8621" class="st1" d="M-11.6,0c0-1.1-0.5-1.6-1.4-1.6c-0.9,0-1.4,0.6-1.4,1.6v3.8h-1.5V0c0-2,1.1-3,2.9-3
						c1.8,0,2.9,1,2.9,3v3.8h-1.5V0z"/>
				</g>
				<g id="g8623" transform="translate(374.1581,106.1899)">
					<path id="path8625" class="st1" d="M-11.6,0l-3.1,4.1H-16v-6.7h1.4v4.2l3.2-4.2h1.2v6.7h-1.4V0z"/>
				</g>
				<g id="g8627" transform="translate(378.668,106.3328)">
					<path id="path8629" class="st1" d="M-11.6,0h3.1v1.3h-3.1v1.4H-8V4h-5v-6.7h5.1v1.3h-3.6V0z"/>
				</g>
				<g id="g8631" transform="translate(385.8839,109.7661)">
					<path id="path8633" class="st1" d="M-11.6,0l0.3-1.2l1.2,0.3v-5.2h1.4v6.7h-1L-11.6,0z"/>
				</g>
				<g id="g8635" transform="translate(390.327,109.0247)">
					<path id="path8637" class="st1" d="M-11.6,0h3.1l-3-5.4h1.7l3,5.6v1.1h-4.8V0z"/>
				</g>
				<path id="path8639" class="st1" d="M384.2,105.9h2.9v1.4h-2.9V105.9z"/>
				<g id="g8641" transform="translate(402.7654,105.7333)">
					<path id="path8643" class="st1" d="M-11.6,0c1.2,0.9,1.8,1.5,1.8,2.6v0c0,1.2-0.9,2.1-2.3,2.1c-1.2,0-1.8-0.5-2.5-1.4l1-0.8
						c0.5,0.6,0.8,0.9,1.4,0.9c0.5,0,0.9-0.3,0.9-0.9c0-0.6-0.3-0.9-1.2-1.6l-2.2-1.8v-1.2h4.9v1.3h-2.9L-11.6,0z"/>
				</g>
				<g id="g8645" transform="translate(405.3507,109.7661)">
					<path id="path8647" class="st1" d="M-11.6,0l0.3-1.2l1.2,0.3v-5.2h1.4v6.7h-1L-11.6,0z"/>
				</g>
				<g id="g8649" transform="translate(409.7354,103.6316)">
					<path id="path8651" class="st1" d="M-11.6,0h0.6c0-0.5-0.3-0.9-0.9-0.9l0.1-0.6c1.1,0,1.8,0.5,1.8,1.8v1.3h-1.5V0z"/>
				</g>
				<g id="g8653" transform="translate(418.3141,105.7333)">
					<path id="path8655" class="st1" d="M-11.6,0c1.2,0.9,1.8,1.5,1.8,2.6v0c0,1.2-0.9,2.1-2.3,2.1c-1.2,0-1.8-0.5-2.5-1.4l1-0.8
						c0.5,0.6,0.8,0.9,1.4,0.9c0.5,0,0.9-0.3,0.9-0.9c0-0.6-0.3-0.9-1.2-1.6l-2.2-1.8v-1.2h4.9v1.3h-2.9L-11.6,0z"/>
				</g>
				<g id="g8657" transform="translate(425.6053,106.9415)">
					<path id="path8659" class="st1" d="M-11.6,0c0-1.2-0.6-2.1-1.4-2.1c-0.9,0-1.5,0.9-1.5,2.1v0c0,1.2,0.6,2.1,1.4,2.1
						C-12.2,2.1-11.6,1.2-11.6,0L-11.6,0z M-13,3.5c-1.8,0-3-1.5-3-3.4v0c0-1.9,1.2-3.4,3-3.4c1.8,0,3,1.5,3,3.4v0
						C-10.1,2-11.3,3.5-13,3.5"/>
				</g>
				<g id="g8661" transform="translate(431.1162,105.7333)">
					<path id="path8663" class="st1" d="M-11.6,0c1.2,0.9,1.8,1.5,1.8,2.6v0c0,1.2-0.9,2.1-2.3,2.1c-1.2,0-1.8-0.5-2.5-1.4l1-0.8
						c0.5,0.6,0.8,0.9,1.4,0.9c0.5,0,0.9-0.3,0.9-0.9c0-0.6-0.3-0.9-1.2-1.6l-2.2-1.8v-1.2h4.9v1.3h-2.9L-11.6,0z"/>
				</g>
				<g id="g8665" transform="translate(437.1223,106.2567)">
					<path id="path8667" class="st1" d="M-11.6,0h-1.8l1.8,2.1V0z M-10.2,4.1h-1.2l-3.7-4.2l0.2-1h3.3v-1.4h1.4v1.4h0.9V0h-0.9V4.1z
						"/>
				</g>
				<g id="g8669" transform="translate(226.4801,161.0119)">
					<path id="path8671" class="st1" d="M-11.6,0L-11.6,0v0.3c-0.1,0.1-0.2,0.1-0.4,0.2c0.1-0.1,0.2-0.1,0.4-0.2V0z"/>
				</g>
				<g id="g8673" transform="translate(222.0625,160.6338)">
					<path id="path8675" class="st1" d="M-11.6,0L-11.6,0v0.2c0.1,0.1,0.3,0.1,0.5,0.2c-0.2,0-0.3-0.1-0.5-0.2V0z"/>
				</g>
				<path id="path8677" class="st1" d="M212.1,161.9L212.1,161.9v-0.3l0,0V161.9z"/>
				<g id="g8679" transform="translate(225.1152,162.1129)">
					<path id="path8681" class="st1" d="M-11.6,0c-0.1,0.1-0.3,0.1-0.3,0.2c0,0.7-0.1,1.5-0.1,2.2c0-0.7,0.1-1.5,0.1-2.2
						C-11.8,0.1-11.6,0.1-11.6,0"/>
				</g>
				<path id="path8683" class="st1" d="M308.2,116.8h-1.1l0,0H308.2z"/>
				<g id="g8685" transform="translate(319.6526,116.0194)">
					<path id="path8687" class="st1" d="M-11.6,0h-1H-11.6z"/>
				</g>
				<g id="g8689" transform="translate(319.7958,117.5552)">
					<path id="path8691" class="st1" d="M-11.6,0h-1.1H-11.6z"/>
				</g>
				<path id="path8693" class="st1" d="M299.7,121.2h-0.8l0,0H299.7z"/>
				<path id="path8695" class="st1" d="M308.2,119.9h-1.1l0,0H308.2z"/>
				<path id="path8697" class="st1" d="M305.5,116.8h-0.6l0,0H305.5z"/>
				<g id="g8699" transform="translate(307.8505,125.5999)">
					<path id="path8701" class="st1" d="M-11.6,0L-11.6,0v-1.4V0z"/>
				</g>
				<path id="path8703" class="st1" d="M305.5,119.9h-1.1l0,0H305.5z"/>
				<g id="g8705" transform="translate(317.0526,117.5552)">
					<path id="path8707" class="st1" d="M-11.6,0h-1.1H-11.6z"/>
				</g>
				<g id="g8709" transform="translate(311.6064,127.8233)">
					<path id="path8711" class="st1" d="M-11.6,0v0.8V0z"/>
				</g>
				<g id="g8713" transform="translate(227.2702,159.2232)">
					<path id="path8715" class="st1" d="M-11.6,0c-0.1,0-0.2,0-0.2,0C-11.7,0-11.6-0.1-11.6,0"/>
				</g>
				<g id="g8717" transform="translate(294.0801,120.7038)">
					<path id="path8719" class="st1" d="M-11.6,0l-0.9-4.2l0.1-0.2l0.8,0.2c0,0,0.1,0,0.2,0.1c0.1,0,0.4,0.1,0.6,0.2l0.2,0.9
						L-11.6,0C-11.5,0-11.5,0-11.6,0"/>
				</g>
				<g id="g8721" transform="translate(295.307,116.8848)">
					<path id="path8723" class="st1" d="M-11.6,0l-0.1,0.3L-11.7,0C-11.7,0-11.6,0-11.6,0"/>
				</g>
				<g id="g8725" transform="translate(295.3537,117.6393)">
					<path id="path8727" class="st1" d="M-11.6,0l0.2-0.7c0.5,0.1,1,0.2,1.5,0.3l0.3,1l-0.9,3.2L-11.6,0z"/>
				</g>
				<g id="g8729" transform="translate(291.4811,119.3045)">
					<path id="path8731" class="st1" d="M-11.6,0c-0.5-0.3-1-0.6-1.4-1l0.2-0.7l0.5-1.5L-11.6,0z"/>
				</g>
				<g id="g8733" transform="translate(300.7903,122.0498)">
					<path id="path8735" class="st1" d="M-11.6,0l0-0.1h0.1L-11.6,0z"/>
				</g>
				<g id="g8737" transform="translate(309.4686,120.4776)">
					<path id="path8739" class="st1" d="M-11.6,0c0,0-0.1,0-0.2,0.1l-0.6-3l0.1-0.4c0.5-0.1,1-0.2,1.6-0.3L-11.6,0z"/>
				</g>
				<g id="g8741" transform="translate(292.8893,116.532)">
					<path id="path8743" class="st1" d="M-11.6,0l-0.9,3.1C-12.5,3-12.6,3-12.7,3l-0.9-3.9l1.9,0.6L-11.6,0z"/>
				</g>
				<g id="g8745" transform="translate(293.006,117.0553)">
					<path id="path8747" class="st1" d="M-11.6,0l0.8,3.5c-0.5-0.2-1-0.5-1.6-0.8L-11.6,0z"/>
				</g>
				<g id="g8749" transform="translate(306.7126,117.5074)">
					<path id="path8751" class="st1" d="M-11.6,0c0.5-0.1,1-0.1,1.6-0.2l0.1,0.3L-11,3.9l-0.8-3.1L-11.6,0z"/>
				</g>
				<g id="g8753" transform="translate(306.4157,117.5424)">
					<path id="path8755" class="st1" d="M-11.6,0C-11.6,0-11.6,0-11.6,0L-11.6,0L-11.6,0L-11.6,0z"/>
				</g>
				<g id="g8757" transform="translate(300.6313,121.4263)">
					<path id="path8759" class="st1" d="M-11.6,0l-0.6-2.3h0.4v0.5h1.1v-0.5h0.2L-11.2,0H-11.6z"/>
				</g>
				<g id="g8761" transform="translate(308.2682,119.0191)">
					<path id="path8763" class="st1" d="M-11.6,0l0.3-0.9l0.6,2.5c-0.5,0.2-0.9,0.4-1.5,0.6L-11.6,0z"/>
				</g>
				<g id="g8765" transform="translate(302.6545,120.9223)">
					<path id="path8767" class="st1" d="M-11.6,0h0.3v-0.5h-0.5L-12-1.8h0.9l0,0V-3v-0.2c0,0,0.3,0,0.7,0l0.2,1l-1.1,3.7L-11.6,0z"
						/>
				</g>
				<g id="g8769" transform="translate(304.98,119.9801)">
					<path id="path8771" class="st1" d="M-11.6,0v-0.5H-12l-0.2-0.8L-12-2l0.1-0.3c0.3,0,0.6,0,1-0.1v2.7L-11.4,2l-0.5-2H-11.6z"/>
				</g>
				<g id="g8773" transform="translate(304.1284,117.7084)">
					<path id="path8775" class="st1" d="M-11.6,0c0.1,0,0.2,0,0.3,0l-0.1,0.5L-11.6,0z"/>
				</g>
				<g id="g8777" transform="translate(288.5343,114.9551)">
					<path id="path8779" class="st1" d="M-11.6,0l0.2,0.1l0.5,2.7c-0.4-0.3-0.9-0.7-1.3-1.1L-11.6,0z"/>
				</g>
				<g id="g8781" transform="translate(303.752,120.7101)">
					<path id="path8783" class="st1" d="M-11.6,0l0.2-0.7h0.4l0.5,2.1c-0.5,0.1-1.1,0.2-1.7,0.3L-11.6,0z"/>
				</g>
				<g id="g8785" transform="translate(300.908,122.5107)">
					<path id="path8787" class="st1" d="M-11.6,0l0.2-0.6l0,0h0.4v-0.5h-0.3l0.7-2.2l0.3,1.2h-0.4v0.5h0.5L-9.7,0
						C-10,0-10.3,0-10.6,0c0,0-0.1,0-0.3,0C-11,0-11.2,0-11.6,0L-11.6,0z"/>
				</g>
				<g id="g8789" transform="translate(300.4637,121.8219)">
					<path id="path8791" class="st1" d="M-11.6,0L-11.6,0L-11.6,0L-11.6,0l0.2,0.7v0c-0.5,0-1.1-0.1-1.9-0.3l1-3.1L-11.6,0z"/>
				</g>
				<g id="g8793" transform="translate(297.5508,118.246)">
					<path id="path8795" class="st1" d="M-11.6,0l0.3-0.9c0.1,0,0.3,0,0.4,0v1.8l0,0h1.3l-1,3L-11.6,0z"/>
				</g>
				<g id="g8797" transform="translate(307.0827,121.4743)">
					<path id="path8799" class="st1" d="M-11.6,0c-0.2,0.1-0.3,0.1-0.5,0.2c-0.1,0-0.1,0-0.2,0v-2.7L-11.6,0z"/>
				</g>
				<g id="g8801" transform="translate(305.6554,121.9043)">
					<path id="path8803" class="st1" d="M-11.6,0c-0.1,0-0.1,0-0.2,0.1l0.2-0.7V0z"/>
				</g>
				<g id="g8805" transform="translate(304.1486,119.3967)">
					<path id="path8807" class="st1" d="M-11.6,0l0.1-0.2l0.1,0.3L-11.6,0L-11.6,0z"/>
				</g>
				<g id="g8809" transform="translate(297.4077,118.7469)">
					<path id="path8811" class="st1" d="M-11.6,0l0.8,3.4c-0.5-0.1-1.1-0.3-1.7-0.5L-11.6,0z"/>
				</g>
				<g id="g8813" transform="translate(297.3058,117.2665)">
					<path id="path8815" class="st1" d="M-11.6,0c0.1,0,0.2,0,0.2,0l-0.1,0.4L-11.6,0z"/>
				</g>
				<g id="g8817" transform="translate(287.7432,116.4606)">
					<path id="path8819" class="st1" d="M-11.6,0c-0.1-0.1-0.3-0.2-0.4-0.4l-0.3-1.6l1.2,0.3L-11.6,0z"/>
				</g>
				<g id="g8821" transform="translate(295.0228,118.7453)">
					<path id="path8823" class="st1" d="M-11.6,0l0.2-0.6l0.9,3.4c-0.5-0.2-1.1-0.4-1.7-0.7L-11.6,0z"/>
				</g>
				<g id="g8825" transform="translate(287.0412,115.7811)">
					<path id="path8827" class="st1" d="M-11.6,0L-11.6,0C-11.6,0-11.6,0-11.6,0L-11.6,0z"/>
				</g>
				<g id="g8829" transform="translate(328.929,121.8402)">
					<path id="path8831" class="st1" d="M-11.6,0l-0.8-3.6l0.1-0.4c0.5,0.1,0.9,0.2,1.5,0.2l0.2,0.8l-0.8,3C-11.5,0.1-11.5,0-11.6,0
						"/>
				</g>
				<g id="g8833" transform="translate(330.0223,118.3446)">
					<path id="path8835" class="st1" d="M-11.6,0l-0.1-0.2c0,0,0.1,0,0.1,0L-11.6,0L-11.6,0z"/>
				</g>
				<g id="g8837" transform="translate(331.1484,122.8122)">
					<path id="path8839" class="st1" d="M-11.6,0c-0.1,0-0.1,0-0.2-0.1l-0.8-3.8l0.2-0.8c0.5,0,0.9,0.1,1.4,0.1l0.3,1.4L-11.6,0z"/>
				</g>
				<g id="g8841" transform="translate(332.2215,119.1292)">
					<path id="path8843" class="st1" d="M-11.6,0l-0.2-0.9c0.1,0,0.3,0,0.4,0l-0.1,0.2L-11.6,0z"/>
				</g>
				<g id="g8845" transform="translate(323.6461,116.6587)">
					<path id="path8847" class="st1" d="M-11.6,0c0.1,0,0.2,0.1,0.4,0.1v1.5c-0.2-0.2-0.4-0.4-0.7-0.7l0.1-0.2L-11.6,0z"/>
				</g>
				<g id="g8849" transform="translate(328.6246,121.6788)">
					<path id="path8851" class="st1" d="M-11.6,0c-0.4-0.2-0.8-0.5-1.3-0.8l0.6-2.1L-11.6,0z"/>
				</g>
				<g id="g8853" transform="translate(326.8485,120.5895)">
					<path id="path8855" class="st1" d="M-11.6,0l-0.3-1.4v-1.7c0.4,0.1,0.8,0.2,1.2,0.2l0.1,0.5l-0.5,1.8l-0.2,0.7
						C-11.4,0.1-11.5,0.1-11.6,0"/>
				</g>
				<g id="g8857" transform="translate(338.2488,118.1729)">
					<path id="path8859" class="st1" d="M-11.6,0c0.2,0,0.5,0,0.7-0.1l-0.4,1.4L-11.6,0z"/>
				</g>
				<g id="g8861" transform="translate(323.2007,117.2112)">
					<path id="path8863" class="st1" d="M-11.6,0l-0.1,0.2C-11.8,0-12-0.2-12.2-0.4l0-0.6c0.2,0.1,0.5,0.2,0.8,0.4L-11.6,0z"/>
				</g>
				<g id="g8865" transform="translate(337.3316,123.6023)">
					<path id="path8867" class="st1" d="M-11.6,0l-0.8-3.5l0.5-1.8c0,0,0,0,0.1,0c0.3,0,0.6,0,0.9-0.1l0.4,1.9L-11.6,0
						C-11.6,0-11.6,0-11.6,0"/>
				</g>
				<g id="g8869" transform="translate(339.2477,123.1293)">
					<path id="path8871" class="st1" d="M-11.6,0l-0.6-3.1l0.1-0.4l0.4-1.6l0,0l0.1,0L-11.6,0C-11.5,0-11.5,0-11.6,0"/>
				</g>
				<g id="g8873" transform="translate(336.1323,118.3084)">
					<path id="path8875" class="st1" d="M-11.6,0c0.2,0,0.4,0,0.6,0l-0.3,1.3L-11.6,0z"/>
				</g>
				<g id="g8877" transform="translate(334.0041,118.343)">
					<path id="path8879" class="st1" d="M-11.6,0c0.2,0,0.4,0,0.7,0l-0.3,1.2L-11.6,0z"/>
				</g>
				<g id="g8881" transform="translate(335.0931,122.7292)">
					<path id="path8883" class="st1" d="M-11.6,0h0.3v-0.7h-0.5L-12-1.6h0.7v-0.7H-12v0.6l-0.2-0.9l0.5-1.8c0.3,0,0.6,0,0.9,0
						l0.4,1.8l-0.9,3.6L-11.6,0z"/>
				</g>
				<g id="g8885" transform="translate(334.1705,120.095)">
					<path id="path8887" class="st1" d="M-11.6,0l-0.1,0.3h-0.7V1h0.5l-0.2,0.9h-0.3v0.7h0.1l-0.2,0.7c0,0,0,0,0,0l-0.9-3.8l0.3-0.9
						l0.1-0.4c0.3,0,0.7,0,1,0L-11.6,0z"/>
				</g>
				<g id="g8889" transform="translate(335.5766,123.7112)">
					<path id="path8891" class="st1" d="M-11.6,0l0.8-3.1l0.7,3c0,0,0,0,0,0C-10.1,0-10.6,0-11.6,0"/>
				</g>
				<g id="g8893" transform="translate(314.7504,115.4703)">
					<path id="path8895" class="st1" d="M-11.6,0l0.4,1c-0.4,0.4-0.8,0.8-1.4,1.2l0.5-2C-11.9,0.1-11.7,0.1-11.6,0"/>
				</g>
				<g id="g8897" transform="translate(312.8078,116.1674)">
					<path id="path8899" class="st1" d="M-11.6,0c0.4-0.1,0.8-0.3,1.2-0.4l-0.6,2.2c0,0-0.1,0-0.1,0.1L-11.6,0z"/>
				</g>
				<g id="g8901" transform="translate(315.5341,116.0737)">
					<path id="path8903" class="st1" d="M-11.6,0c-0.1,0.1-0.1,0.1-0.2,0.2l-0.4-0.9c0.3-0.1,0.5-0.2,0.8-0.3l-0.2,0.8L-11.6,0z"/>
				</g>
				<g id="g8905" transform="translate(312.7898,117.554)">
					<path id="path8907" class="st1" d="M-11.6,0h-0.6l0.3-1.3c0,0,0,0,0.1,0c0,0,0,0,0,0l0.6,1.9c-0.1,0.1-0.3,0.2-0.4,0.3V0z"/>
				</g>
				<g id="g8909" transform="translate(311.4728,119.3592)">
					<path id="path8911" class="st1" d="M-11.6,0l-0.2-0.6v-1.2h-0.4l-0.2-0.8l0,0c0.5-0.1,1-0.3,1.5-0.4L-11.6,0
						C-11.6,0-11.6,0-11.6,0"/>
				</g>
				<g id="g8913" transform="translate(316.2064,114.8469)">
					<path id="path8915" class="st1" d="M-11.6,0c0.2-0.1,0.4-0.2,0.7-0.3c0,0-0.1,0.1-0.2,0.3H-11.6z"/>
				</g>
				<g id="g8917" transform="translate(312.1196,118.9285)">
					<path id="path8919" class="st1" d="M-11.6,0c-0.1,0.1-0.2,0.1-0.3,0.2l0.2-0.8l0.1-0.2L-11.6,0L-11.6,0z"/>
				</g>
				<g id="g8921" transform="translate(334.1027,122.7292)">
					<path id="path8923" class="st1" d="M-11.6,0v-0.7h-0.2l0.4-1.4l0.4,1.4V0h0.2l0.2,1c-0.5,0-1-0.1-1.6-0.2l0.2-0.6l0-0.2H-11.6z
						"/>
				</g>
				<g id="g8925" transform="translate(332.194,120.1507)">
					<path id="path8927" class="st1" d="M-11.6,0l0.8,3.2c-0.5-0.1-1-0.3-1.6-0.4L-11.6,0z"/>
				</g>
				<g id="g8929" transform="translate(329.9979,119.4648)">
					<path id="path8931" class="st1" d="M-11.6,0l0.7,3.2c-0.4-0.2-0.9-0.4-1.4-0.6L-11.6,0z"/>
				</g>
				<g id="g8933" transform="translate(316.2891,115.2518)">
					<path id="path8935" class="st1" d="M-11.6,0c-0.1,0.1-0.2,0.2-0.3,0.4h0v0c0,0,0,0.1-0.1,0.1l0.1-0.5H-11.6z"/>
				</g>
				<g id="g8937" transform="translate(322.2994,116.4961)">
					<path id="path8939" class="st1" d="M-11.6,0c-0.2-0.2-0.4-0.5-0.6-0.7c0,0,0.2,0.1,0.6,0.3L-11.6,0z"/>
				</g>
				<g id="g8941" transform="translate(338.9954,123.1998)">
					<path id="path8943" class="st1" d="M-11.6,0c-0.4,0.1-0.9,0.2-1.4,0.3l0.8-2.9L-11.6,0z"/>
				</g>
				<g id="g8945" transform="translate(310.5099,119.7776)">
					<path id="path8947" class="st1" d="M-11.6,0v0.2c-0.2,0.1-0.5,0.3-0.7,0.4l0.8-3.1l0.1,0.3h-0.1v1.4h0.6l0,0l0.2,0.6
						C-11-0.2-11.1-0.1-11.3,0H-11.6z"/>
				</g>
				<g id="g8949" transform="translate(289.811,118.1721)">
					<path id="path8951" class="st1" d="M-11.6,0c-0.1-0.1-0.2-0.1-0.2-0.2l-0.6-2.9l1.6,0.4l0,0.1l-0.5,1.8L-11.6,0z"/>
				</g>
				<g id="g8953" transform="translate(315.9656,115.615)">
					<path id="path8955" class="st1" d="M-11.6,0C-11.6,0-11.6,0-11.6,0L-11.6,0L-11.6,0z"/>
				</g>
				<g id="g8957" transform="translate(300.4637,121.8219)">
					<path id="path8959" class="st1" d="M-11.6,0L-11.6,0L-11.6,0L-11.6,0z"/>
				</g>
				<g id="g8961" transform="translate(226.8035,160.5305)">
					<path id="path8963" class="st1" d="M-11.6,0c-0.5,0.3-1.3,0.4-2.1,0.4c-0.7,0-1.2,0-1.7-0.1c-0.3-0.1-0.7-0.1-0.9-0.3
						c0.2-0.2,0.6-0.3,0.6-0.6c0-0.3-0.1-0.5-0.5-0.6c1.3,0.1,3.1,0.1,4.6,0c-0.2,0.2-0.7,0.2-0.8,0.5C-12.2-0.4-11.8-0.3-11.6,0"/>
				</g>
				<g id="g8965" transform="translate(218.327,155.9209)">
					<path id="path8967" class="st1" d="M-11.6,0c0,0.1-0.3,0.3-0.2,0.5c0.1,0.3,0.9,0.6,1.4,0.7c1.6,0.4,3.2,0.4,5.2,0.4
						c1.8,0,3.6-0.1,5.1-0.4c0.4-0.1,1.2-0.3,1.2-0.7C1.2,0.3,1,0.2,0.8,0c0.7,0.1,1.4,0.3,1.7,0.6c0.1,0.1,0.1,0.2,0.1,0.3
						c0,0,0,0.1-0.1,0.2C2.1,1.5,1.7,1.6,1.2,1.8c-0.1,0.1,0,0.3,0,0.4C0.9,2.5,0.5,2.7,0,2.8C-0.4,3-1,3.1-1.4,3.2c0,0,0,0,0,0
						c0,0,0,0,0,0c-0.1,0-0.1,0-0.2,0c0.3-0.1,0.2-0.6,0.2-0.8c-0.1,0-0.2,0-0.3,0c0,0.3,0.2,0.9-0.2,0.8c0.3,0,0.2-0.4,0.1-0.8
						c-0.2,0-0.3,0-0.3,0c0,0.2,0.2,0.6,0,0.8c0,0,0,0-0.1,0C-2,3-2.1,2.7-2.2,2.4c-0.2,0-0.2,0-0.2,0c0,0.3,0.1,0.6,0,0.8
						c0,0,0,0,0,0c0.1-0.2,0-0.6,0-0.8c-0.2,0-0.3,0-0.3,0c0,0.2,0.1,0.7,0,0.8c0,0,0,0,0,0c0.1-0.1,0-0.4,0-0.8c-0.2,0-0.1,0-0.3,0
						c0,0.3,0.1,0.6,0,0.8c0,0,0.2,0,0.2,0c-0.1,0-0.2,0-0.3,0c0.1,0,0-0.5,0-0.8c-0.1,0-0.2,0-0.4,0c0,0.4,0,0.7,0,0.8
						c0,0,0,0-0.1,0c0,0-0.1-0.6-0.1-0.8c-0.2,0-0.3,0-0.7,0c0,0.2,0,0.7,0,0.8h-0.1c0-0.4,0-0.4,0-0.8c-0.2,0-0.5,0-0.8,0
						c0,0.3,0,0.4,0,0.8c0,0,0.1,0,0.1,0c-0.2,0-0.6,0-0.5,0c0.1,0,0.3,0,0.3,0c0-0.1,0-0.6,0-0.8c-0.2,0-0.5,0-0.7,0
						c0,0.3,0,0.6,0,0.8c-1,0-1.6-0.1-2.5-0.2c-0.1-0.1,0,0,0.1,0c0.2,0,0.3,0,0.5,0.1c0-0.3,0-0.4,0.1-0.7c-0.3,0-0.4,0-0.7-0.1
						c0,0.2,0,0.5-0.1,0.8c-0.1,0-0.2,0-0.2,0c0.2,0,0.2-0.5,0.2-0.8c-0.2,0-0.4-0.1-0.6-0.1C-9.4,3-9.3,3-9.4,3
						c0-0.2,0-0.5,0.1-0.7c-0.2,0-0.3-0.1-0.5-0.1c0,0.2-0.1,0.4-0.1,0.7C-9.8,2.9-9.7,2.9-9.5,3C-9.3,3-8.9,3.1-9,3.1
						c-0.9-0.2-2-0.6-2.8-0.9c0-0.2,0-0.4,0-0.6c-0.5-0.2-1.1-0.3-1.4-0.8V0.8C-12.9,0.3-12.2,0.2-11.6,0"/>
				</g>
				<g id="g8969" transform="translate(227.2704,157.2589)">
					<path id="path8971" class="st1" d="M-11.6,0c-1.3,0.1-2.7,0.2-4.5,0.1C-16.5,0-17,0-18-0.1c-1-0.1-3-0.4-2.2-1.4
						c3.2,1.2,8.2,1.1,11.4,0.2c0.4,0,0.7,0.2,0.7,0.4C-8.4-0.3-10.4-0.1-11.6,0"/>
				</g>
				<g id="g8973" transform="translate(222.0625,160.6338)">
					<path id="path8975" class="st1" d="M-11.6,0v0.2c0.1,0.1,0.3,0.1,0.5,0.2c0.5,0.1,1.1,0.2,1.7,0.2c0.2,0,0.4,0,0.6,0
						c0.4,0,0.8,0,1.2-0.1c0.2,0,0.4-0.1,0.5-0.1v0.3c-0.1,0.1-0.2,0.1-0.4,0.2C-7.6,0.9-7.8,1-7.9,1C-8,1.1-7.9,1.3-8,1.3h-0.2
						C-8.3,1.2-8.2,1-8.3,1l-0.2,0.5c-0.1,0.1-0.3,0.1-0.3,0.2c0,0.7-0.1,1.5-0.1,2.2C-9,4.6-9,5.4-9.1,6.1h0
						c-0.1-1.5-0.1-3-0.1-4.5c-0.1,0-0.2,0-0.3-0.1V1H-10l0,0v0.3c-0.1,0-0.3,0-0.4,0c-0.1,0-0.2,0-0.3-0.1c0.1-0.5-0.3-0.4-0.3-0.8
						c-0.2,0-0.4-0.1-0.6-0.2C-11.6,0.2-11.6,0.1-11.6,0C-11.6,0.1-11.6,0-11.6,0z"/>
				</g>
				<g id="g8977" transform="translate(226.121,159.2921)">
					<path id="path8979" class="st1" d="M-11.6,0c-0.2,0-0.5,0-0.6,0C-12,0-11.7-0.1-11.6,0"/>
				</g>
				<g id="g8981" transform="translate(345.7193,106.3289)">
					<path id="path8983" class="st1" d="M-11.6,0h1.8l-0.9,2.2L-11.6,0z"/>
				</g>
				<g id="g8985" transform="translate(298.9526,106.3289)">
					<path id="path8987" class="st1" d="M-11.6,0h1.8l-0.9,2.2L-11.6,0z"/>
				</g>
				<g id="g8989" transform="translate(265.6477,113.4276)">
					<path id="path8991" class="st1" d="M-11.6,0l-0.8,0.3c0.1-0.3,0.2-0.8,0.3-1.2L-11.6,0z"/>
				</g>
				<g id="g8993" transform="translate(265.0041,111.2564)">
					<path id="path8995" class="st1" d="M-11.6,0c0-0.7,0-1.4,0-1.4v-8.9h0.7l0,4.4c0,0.1,0.2,1.6,0.6,3.3
						C-10.6-1.6-11.1-0.8-11.6,0"/>
				</g>
				<g id="g8997" transform="translate(265.3317,114.051)">
					<path id="path8999" class="st1" d="M-11.6,0c-0.1,0.1-0.2,0.1-0.2,0.1l-0.1,0l0,0c-0.1,0-0.1,0-0.2,0l0.7-0.3
						C-11.5-0.1-11.5,0-11.6,0"/>
				</g>
				<g id="g9001" transform="translate(260.9067,113.7608)">
					<path id="path9003" class="st1" d="M-11.6,0c0.3-0.1,0.5-0.3,0.8-0.4c0,0.2-0.1,0.3-0.1,0.5c-0.2,0.1-0.4,0.1-0.6,0.2
						C-11.5,0.2-11.6,0.1-11.6,0"/>
				</g>
				<g id="g9005" transform="translate(263.6319,113.004)">
					<path id="path9007" class="st1" d="M-11.6,0c0,0.1-0.1,0.2-0.1,0.2c-0.1,0.1-0.2,0.3-0.4,0.4c0,0-0.1,0-0.1,0L-11.6,0
						C-11.6,0-11.6,0-11.6,0"/>
				</g>
				<g id="g9009" transform="translate(261.0128,115.1908)">
					<path id="path9011" class="st1" d="M-11.6,0c0-0.2-0.1-0.5-0.1-0.8c0.2,0,0.3-0.1,0.5-0.1C-11.3-0.6-11.4-0.3-11.6,0L-11.6,0z"
						/>
				</g>
				<g id="g9013" transform="translate(263.5746,114.216)">
					<path id="path9015" class="st1" d="M-11.6,0C-11.6,0-11.6,0-11.6,0L-11.6,0L-11.6,0z"/>
				</g>
				<g id="g9017" transform="translate(263.0625,114.2991)">
					<path id="path9019" class="st1" d="M-11.6,0c0,0,0,0.1-0.1,0.1l-0.1,0C-11.7,0.1-11.6,0.1-11.6,0"/>
				</g>
				<g id="g9021" transform="translate(265.249,111.9362)">
					<path id="path9023" class="st1" d="M-11.6,0c0.2-0.2,0.4-0.4,0.7-0.7c0.3-0.3,0.6-0.7,0.8-1.2c-0.2,1.6-0.5,2.6-0.8,3.2
						L-11.6,0z"/>
				</g>
				<g id="g9025" transform="translate(263.283,115.0484)">
					<path id="path9027" class="st1" d="M-11.6,0c-0.1,0.2-0.2,0.3-0.4,0.5c0,0-0.1,0.1-0.1,0.1c0.1-0.2,0.2-0.4,0.3-0.6
						C-11.7,0.1-11.6,0-11.6,0"/>
				</g>
				<g id="g9029" transform="translate(271.0473,112.5611)">
					<path id="path9031" class="st1" d="M-11.6,0c0,0.3,0.1,0.6,0.1,0.8l0,0l0,0.1c0,0.1,0,0.1,0,0.2c-0.5-0.2-0.9-0.5-1.4-0.9
						C-12.5,0.1-12.1,0.1-11.6,0"/>
				</g>
				<g id="g9033" transform="translate(271.2445,111.1836)">
					<path id="path9035" class="st1" d="M-11.6,0c0.1-0.2,0.2-0.4,0.3-0.6c0,0,0,0,0,0c0.1,0.2,0.3,0.4,0.5,0.6
						c-0.3,0.1-0.5,0.3-0.8,0.4C-11.5,0.3-11.6,0.1-11.6,0"/>
				</g>
				<g id="g9037" transform="translate(266.8195,108.7116)">
					<path id="path9039" class="st1" d="M-11.6,0c0,0.1-0.1,0.2-0.1,0.3c0-0.1-0.1-0.2-0.1-0.2c0-0.1,0-0.1,0.1-0.2
						C-11.6-0.1-11.6-0.1-11.6,0"/>
				</g>
				<g id="g9041" transform="translate(272.5308,113.2299)">
					<path id="path9043" class="st1" d="M-11.6,0C-11.6,0-11.5,0-11.6,0l0.3-0.1C-11.4-0.1-11.5,0-11.6,0"/>
				</g>
				<g id="g9045" transform="translate(269.4779,112.3947)">
					<path id="path9047" class="st1" d="M-11.6,0C-11.6,0-11.6,0-11.6,0l0.6-1.2c0.2,0,0.5-0.1,0.8-0.2c0,0.1,0,0.1,0,0.2
						c-0.4,0.6-0.8,1-1.1,1.2C-11.4-0.1-11.5,0-11.6,0"/>
				</g>
				<g id="g9049" transform="translate(271.9401,113.0792)">
					<path id="path9051" class="st1" d="M-11.6,0c0.1-0.2,0.2-0.5,0.3-0.8c0.2-0.1,0.4-0.1,0.5-0.2L-11.6,0L-11.6,0z"/>
				</g>
				<g id="g9053" transform="translate(266.5257,107.9869)">
					<path id="path9055" class="st1" d="M-11.6,0C-11.6,0-11.6,0-11.6,0c0,0-0.1-0.2-0.1-0.3C-11.6-0.2-11.6-0.1-11.6,0"/>
				</g>
				<g id="g9057" transform="translate(265.618,111.0051)">
					<path id="path9059" class="st1" d="M-11.6,0c0,0-0.1,0.1-0.1,0.1c0.3-0.6,0.7-1.2,0.9-1.9c0,0.1,0.1,0.2,0.1,0.2
						C-10.9-0.9-11.3-0.4-11.6,0"/>
				</g>
				<g id="g9061" transform="translate(267.9498,111.6351)">
					<path id="path9063" class="st1" d="M-11.6,0l0-0.6c0.4,0.6,0.7,1.1,1.1,1.5C-10.9,0.7-11.2,0.4-11.6,0"/>
				</g>
				<g id="g9065" transform="translate(268.4673,111.1102)">
					<path id="path9067" class="st1" d="M-11.6,0c0.2,0.1,0.7,0.1,1.2,0.1L-10.8,1C-11.1,0.7-11.3,0.3-11.6,0"/>
				</g>
				<g id="g9069" transform="translate(259.3977,112.3812)">
					<path id="path9071" class="st1" d="M-11.6,0l-0.1-0.2C-11.6-0.1-11.6,0-11.6,0l-0.1,0.1C-11.6,0.1-11.6,0-11.6,0"/>
				</g>
				<g id="g9073" transform="translate(261.8663,112.5971)">
					<path id="path9075" class="st1" d="M-11.6,0c-0.1-0.2-0.3-0.3-0.4-0.5c0.2-0.2,0.4-0.3,0.6-0.5C-11.4-0.7-11.5-0.3-11.6,0"/>
				</g>
				<g id="g9077" transform="translate(260.5133,113.5521)">
					<path id="path9079" class="st1" d="M-11.6,0c-0.1,0-0.2,0.1-0.2,0.1c0.1-0.1,0.1-0.1,0.2-0.2C-11.6-0.1-11.6,0-11.6,0"/>
				</g>
				<g id="g9081" transform="translate(261.5238,110.3103)">
					<path id="path9083" class="st1" d="M-11.6,0c-0.1,0.4-0.3,0.8-0.4,1.2c-0.3-0.6-0.5-1.3-0.6-2.1c0-0.1,0-0.2,0-0.2l0,0l0,0
						c0-0.6-0.1-1.1-0.1-1.7c0-0.3,0-0.7,0-1.1c0.1,0.6,0.3,1.4,0.5,2.2C-12.1-1.1-11.8-0.5-11.6,0"/>
				</g>
				<g id="g9085" transform="translate(260.4433,112.8652)">
					<path id="path9087" class="st1" d="M-11.6,0c-0.1,0.2-0.3,0.4-0.4,0.6c0-0.2-0.1-0.4-0.1-0.6c0.2,0,0.3-0.1,0.5-0.2
						C-11.6-0.1-11.6-0.1-11.6,0"/>
				</g>
				<g id="g9089" transform="translate(262.3637,113.5594)">
					<path id="path9091" class="st1" d="M-11.6,0c-0.1,0.1-0.3,0.1-0.4,0.2c0-0.1,0.1-0.3,0.1-0.4C-11.8-0.1-11.7-0.1-11.6,0"/>
				</g>
				<g id="g9093" transform="translate(261.7094,110.7765)">
					<path id="path9095" class="st1" d="M-11.6,0c0.1,0.1,0.2,0.3,0.2,0.4l-0.1,0c-0.2,0.2-0.3,0.4-0.5,0.5
						C-11.8,0.6-11.7,0.3-11.6,0"/>
				</g>
				<g id="g9097" transform="translate(261.579,114.9978)">
					<path id="path9099" class="st1" d="M-11.6,0c0.1-0.2,0.2-0.5,0.3-0.9c0.2-0.1,0.4-0.1,0.6-0.2L-11.6,0L-11.6,0z"/>
				</g>
				<g id="g9101" transform="translate(261.8589,110.272)">
					<path id="path9103" class="st1" d="M-11.6,0c0.1-0.4,0.2-0.9,0.3-1.4c0,0.6,0,1.2-0.1,1.8C-11.4,0.3-11.5,0.1-11.6,0"/>
				</g>
				<g id="g9105" transform="translate(262.1611,115.1604)">
					<path id="path9107" class="st1" d="M-11.6,0C-11.6,0-11.5,0-11.6,0l0.4-0.2C-11.3-0.1-11.4-0.1-11.6,0"/>
				</g>
				<g id="g9109" transform="translate(262.2216,112.7065)">
					<path id="path9111" class="st1" d="M-11.6,0c0.1-0.3,0.1-0.7,0.2-1c0.2,0.2,0.4,0.4,0.6,0.6C-11-0.3-11.3-0.1-11.6,0"/>
				</g>
				<g id="g9113" transform="translate(273.5816,110.7963)">
					<path id="path9115" class="st1" d="M-11.6,0c0,0,0.1,0,0.1,0.1l-0.6,0.8c0,0,0,0-0.1,0l0,0c0,0,0,0,0,0
						c-0.1-0.1-0.3-0.2-0.4-0.3C-12.1,0.3-11.7,0.1-11.6,0"/>
				</g>
				<g id="g9117" transform="translate(259.6957,108.3898)">
					<path id="path9119" class="st1" d="M-11.6,0c0.1-0.5,0.2-1,0.2-1.4c0,0.1,0,0.3,0,0.4c0,0.6,0,1.1,0.1,1.6l-0.4,0.4L-11.6,0z"
						/>
				</g>
				<g id="g9121" transform="translate(259.3521,113.2591)">
					<path id="path9123" class="st1" d="M-11.6,0l0.1-0.2c0,0.2,0.1,0.5,0.1,0.8c-0.1,0.1-0.2,0.1-0.3,0.2
						C-11.6,0.5-11.6,0.3-11.6,0"/>
				</g>
				<g id="g9125" transform="translate(259.6862,110.9959)">
					<path id="path9127" class="st1" d="M-11.6,0l0-1.2l0.4-0.4c0,0.5,0.1,1,0.1,1.5l-0.6,0.3C-11.6,0.2-11.6,0.1-11.6,0"/>
				</g>
				<g id="g9129" transform="translate(260.5112,114.0784)">
					<path id="path9131" class="st1" d="M-11.6,0c-0.1,0-0.3,0.1-0.4,0.1c0,0,0,0,0,0c0.2-0.1,0.3-0.1,0.4-0.2
						C-11.6-0.1-11.6,0-11.6,0"/>
				</g>
				<g id="g9133" transform="translate(263.475,112.5872)">
					<path id="path9135" class="st1" d="M-11.6,0l-0.7,0.8c0,0,0,0-0.1,0l0,0c0,0,0,0,0,0c-0.1-0.1-0.3-0.2-0.4-0.3
						c0.5-0.3,0.9-0.5,1-0.5C-11.6,0-11.6,0-11.6,0"/>
				</g>
				<g id="g9137" transform="translate(262.8992,110.3092)">
					<path id="path9139" class="st1" d="M-11.6,0c0.1,0.7,0.3,1.3,0.4,1.8c-0.3-0.2-0.6-0.6-0.9-0.9C-11.9,0-11.9-1-11.9-2v-0.1
						C-11.8-1.6-11.7-0.8-11.6,0"/>
				</g>
				<g id="g9141" transform="translate(262.8546,113.9086)">
					<path id="path9143" class="st1" d="M-11.6,0C-11.5,0-11.5,0-11.6,0c-0.1,0.2-0.2,0.3-0.3,0.4L-11.6,0z"/>
				</g>
				<g id="g9145" transform="translate(260.333,112.336)">
					<path id="path9147" class="st1" d="M-11.6,0c-0.2,0.1-0.3,0.1-0.5,0.2c0,0,0,0,0-0.1l0.5-0.8C-11.6-0.5-11.6-0.2-11.6,0"/>
				</g>
				<g id="g9149" transform="translate(259.7541,111.6094)">
					<path id="path9151" class="st1" d="M-11.6,0l0.1-0.1l-0.2,0.3C-11.6,0.1-11.6,0.1-11.6,0"/>
				</g>
				<g id="g9153" transform="translate(259.8081,114.7296)">
					<path id="path9155" class="st1" d="M-11.6,0c0,0.1,0.1,0.3,0.1,0.4c-0.2-0.1-0.4-0.3-0.5-0.4c0,0,0,0,0-0.1c0.1,0,0.3,0,0.4,0
						C-11.6-0.1-11.6-0.1-11.6,0"/>
				</g>
				<g id="g9157" transform="translate(272.2519,108.7253)">
					<path id="path9159" class="st1" d="M-11.6,0c0.1-0.4,0.2-0.8,0.3-1.3c0,0.6,0,1.1-0.1,1.7C-11.4,0.3-11.5,0.1-11.6,0"/>
				</g>
				<g id="g9161" transform="translate(273.1691,112.0764)">
					<path id="path9163" class="st1" d="M-11.6,0C-11.5,0-11.5,0-11.6,0c-0.1,0.1-0.2,0.3-0.3,0.4L-11.6,0z"/>
				</g>
				<g id="g9165" transform="translate(267.1259,109.7189)">
					<path id="path9167" class="st1" d="M-11.6,0c0-0.1,0-0.2,0-0.2c0,0.1,0.1,0.1,0.1,0.2L-11.6,0z"/>
				</g>
				<g id="g9169" transform="translate(266.9043,108.0172)">
					<path id="path9171" class="st1" d="M-11.6,0c0-0.1,0.1-0.2,0.1-0.3c0,0.1,0,0.3,0,0.4C-11.5,0.1-11.6,0-11.6,0"/>
				</g>
				<g id="g9173" transform="translate(264.3752,112.194)">
					<path id="path9175" class="st1" d="M-11.6,0C-11.6,0-11.6,0-11.6,0c0-0.1,0.1-0.3,0.1-0.4c0,0.1,0,0.2,0,0.3
						C-11.5-0.1-11.5-0.1-11.6,0"/>
				</g>
				<g id="g9177" transform="translate(266.0443,105.3603)">
					<path id="path9179" class="st1" d="M-11.6,0l0-4.3h1v4.7c-0.1,0.6-0.2,1.2-0.4,1.8C-11.3,1-11.5,0.1-11.6,0"/>
				</g>
				<g id="g9181" transform="translate(268.76,110.3334)">
					<path id="path9183" class="st1" d="M-11.6,0L-11.6,0c-0.1,0.2-0.3,0.4-0.4,0.4l-0.1,0c-0.4-0.6-0.7-1.3-1-2c0-0.1,0-0.3,0-0.4
						c0.2-0.7,0.1-2.3,0.1-2.3v-5.1h2.9v2.8C-10.2-5-10.6-1.3-11.6,0L-11.6,0z"/>
				</g>
				<g id="g9185" transform="translate(275.3748,110.2591)">
					<path id="path9187" class="st1" d="M-11.6,0c0.2-0.2,0.4-0.4,0.6-0.6c0.2-0.3,0.5-0.7,0.7-1.1c-0.2,1.5-0.5,2.4-0.7,2.9
						L-11.6,0z"/>
				</g>
				<g id="g9189" transform="translate(271.4725,113.2577)">
					<path id="path9191" class="st1" d="M-11.6,0c0-0.2-0.1-0.5-0.1-0.8c0.1,0,0.3-0.1,0.4-0.1C-11.3-0.5-11.4-0.2-11.6,0L-11.6,0z"
						/>
				</g>
				<g id="g9193" transform="translate(263.7994,112.3762)">
					<path id="path9195" class="st1" d="M-11.6,0c-0.5-1.7-0.9-4.1-1-5.3l0-6.1h1.8V-3C-10.9-1.9-11.2-0.9-11.6,0
						C-11.5,0-11.5,0-11.6,0"/>
				</g>
				<g id="g9197" transform="translate(271.3209,111.9401)">
					<path id="path9199" class="st1" d="M-11.6,0c0.2-0.1,0.5-0.2,0.7-0.4c0,0.2-0.1,0.3-0.1,0.4c-0.2,0.1-0.4,0.1-0.6,0.1
						C-11.6,0.2-11.6,0.1-11.6,0"/>
				</g>
				<g id="g9201" transform="translate(245.429,114.0079)">
					<path id="path9203" class="st1" d="M-11.6,0L-11.6,0c-0.2,0.2-0.3,0.4-0.5,0.4l-0.1,0c-1.5-2.4-2.2-5.4-2.3-5.6l0-7.9h4.4v6.3
						C-10.1-5.1-10.6-1.4-11.6,0L-11.6,0z"/>
				</g>
				<g id="g9205" transform="translate(248.0499,115.6663)">
					<path id="path9207" class="st1" d="M-11.6,0c0.3-0.1,0.5-0.2,0.7-0.4c0,0.2-0.1,0.3-0.1,0.4c-0.2,0.1-0.4,0.1-0.6,0.2
						C-11.6,0.2-11.6,0.1-11.6,0"/>
				</g>
				<g id="g9209" transform="translate(275.6229,109.5116)">
					<path id="path9211" class="st1" d="M-11.6,0c0.5-0.9,1-1.9,1.4-3.1c0,0.2,0,0.4-0.1,0.6c-0.3,1.1-0.8,1.9-1.2,2.4
						C-11.5-0.1-11.5,0-11.6,0"/>
				</g>
				<g id="g9213" transform="translate(257.6099,120.4211)">
					<path id="path9215" class="st1" d="M-11.6,0c0-0.3-0.1-0.6-0.1-1c0.2,0,0.4-0.1,0.5-0.1C-11.3-0.7-11.4-0.3-11.6,0L-11.6,0z"/>
				</g>
				<g id="g9217" transform="translate(242.9908,111.3054)">
					<path id="path9219" class="st1" d="M-11.6,0c0.2,0.5,0.4,1,0.6,1.5c0.1,0.2,0.2,0.3,0.2,0.5L-11,2.1C-11.2,1.4-11.4,0.7-11.6,0
						"/>
				</g>
				<g id="g9221" transform="translate(261.193,112.3028)">
					<path id="path9223" class="st1" d="M-11.6,0c0.2,0.2,0.3,0.5,0.5,0.7c-0.3,0.1-0.6,0.3-0.8,0.4c0-0.1,0-0.3,0-0.4
						C-11.8,0.5-11.7,0.2-11.6,0C-11.6,0-11.6,0-11.6,0"/>
				</g>
				<g id="g9225" transform="translate(244.2854,114.1497)">
					<path id="path9227" class="st1" d="M-11.6,0l0,0.7C-11.8,0.4-12,0-12.2-0.4l0.3-0.1C-11.7-0.3-11.7-0.2-11.6,0"/>
				</g>
				<g id="g9229" transform="translate(257.418,118.7542)">
					<path id="path9231" class="st1" d="M-11.6,0c0.3-0.1,0.6-0.3,0.9-0.4c0,0.2-0.1,0.4-0.1,0.5c-0.2,0.1-0.5,0.1-0.7,0.2
						C-11.5,0.2-11.6,0.1-11.6,0"/>
				</g>
				<g id="g9233" transform="translate(248.2064,117.0268)">
					<path id="path9235" class="st1" d="M-11.6,0c0-0.2-0.1-0.5-0.1-0.8c0.1,0,0.3-0.1,0.4-0.1C-11.3-0.5-11.4-0.2-11.6,0L-11.6,0z"
						/>
				</g>
				<g id="g9237" transform="translate(251.6308,115.2035)">
					<path id="path9239" class="st1" d="M-11.6,0c-0.1-0.2-0.1-0.4-0.2-0.5c0-0.1,0.1-0.1,0.1-0.2c0,0.1,0.1,0.2,0.1,0.3
						C-11.5-0.3-11.5-0.1-11.6,0"/>
				</g>
				<g id="g9241" transform="translate(250.6833,110.4292)">
					<path id="path9243" class="st1" d="M-11.6,0l0-9.4h3.3v7c-0.3,2.3-1.2,4.2-2.2,5.7C-11.2,1.6-11.5,0.2-11.6,0"/>
				</g>
				<g id="g9245" transform="translate(267.6752,110.471)">
					<path id="path9247" class="st1" d="M-11.6,0l0,0.7C-11.8,0.4-12,0-12.1-0.4l0.3-0.1C-11.7-0.3-11.7-0.2-11.6,0"/>
				</g>
				<g id="g9249" transform="translate(270.9858,103.8425)">
					<path id="path9251" class="st1" d="M-11.6,0v-2.8h1.5V2c-0.1,0.9-0.3,1.7-0.4,2.4C-11.4,2.5-11.6,0.1-11.6,0"/>
				</g>
				<g id="g9253" transform="translate(272.114,109.1903)">
					<path id="path9255" class="st1" d="M-11.6,0c0.1,0.1,0.1,0.2,0.2,0.4l-0.1,0c-0.1,0.2-0.3,0.3-0.4,0.5
						C-11.8,0.6-11.7,0.3-11.6,0"/>
				</g>
				<g id="g9257" transform="translate(275.2984,110.8229)">
					<path id="path9259" class="st1" d="M-11.6,0l0.4,0.8l-0.7,0.3C-11.7,0.8-11.6,0.4-11.6,0"/>
				</g>
				<g id="g9261" transform="translate(270.3135,110.8053)">
					<path id="path9263" class="st1" d="M-11.6,0l0.5-0.9c0,0.2,0,0.5,0.1,0.7C-11.2-0.1-11.4,0-11.6,0"/>
				</g>
				<g id="g9265" transform="translate(268.7854,110.8463)">
					<path id="path9267" class="st1" d="M-11.6,0c0.1-0.1,0.2-0.2,0.2-0.3L-9.9-1l-0.6,1C-10.9,0.1-11.3,0-11.6,0"/>
				</g>
				<g id="g9269" transform="translate(270.1756,107.1653)">
					<path id="path9271" class="st1" d="M-11.6,0c0.1-0.5,0.2-1,0.2-1.5c0,0.1,0,0.2,0,0.4c0,0.5,0,1,0.1,1.5l-0.6,0.5
						C-11.7,0.6-11.6,0.3-11.6,0"/>
				</g>
				<g id="g9273" transform="translate(274.0705,111.6645)">
					<path id="path9275" class="st1" d="M-11.6,0c0.1,0.2,0.2,0.4,0.3,0.5c-0.2,0-0.4-0.1-0.6-0.2C-11.8,0.2-11.7,0.1-11.6,0"/>
				</g>
				<g id="g9277" transform="translate(273.5403,112.2515)">
					<path id="path9279" class="st1" d="M-11.6,0c0.1,0,0.2,0.1,0.3,0.1l-0.6,0.2C-11.8,0.2-11.7,0.1-11.6,0"/>
				</g>
				<g id="g9281" transform="translate(273.377,111.8086)">
					<path id="path9283" class="st1" d="M-11.6,0l0.5-0.6c0,0,0,0.1,0.1,0.1C-11.2-0.3-11.3-0.1-11.6,0C-11.5,0-11.5,0-11.6,0"/>
				</g>
				<g id="g9285" transform="translate(274.9972,110.5887)">
					<path id="path9287" class="st1" d="M-11.6,0c-0.1,0.5-0.2,1.1-0.3,1.4C-12,1.2-12.1,1-12.3,0.8c0.2-0.2,0.3-0.4,0.5-0.6
						C-11.7,0.1-11.6,0.1-11.6,0"/>
				</g>
				<g id="g9289" transform="translate(269.8373,108.6604)">
					<path id="path9291" class="st1" d="M-11.6,0l0.8-0.7c0,0.5,0.1,1,0.1,1.4l-1.4,0.7C-11.9,1-11.7,0.6-11.6,0"/>
				</g>
				<g id="g9293" transform="translate(272.2052,110.8675)">
					<path id="path9295" class="st1" d="M-11.6,0c-0.1-0.1-0.2-0.3-0.3-0.5c0.2-0.1,0.4-0.3,0.5-0.5C-11.4-0.6-11.5-0.3-11.6,0"/>
				</g>
				<g id="g9297" transform="translate(271.0101,112.2326)">
					<path id="path9299" class="st1" d="M-11.6,0c-0.2,0-0.3,0.1-0.5,0.1c0.2-0.1,0.3-0.1,0.5-0.2C-11.6-0.1-11.6,0-11.6,0"/>
				</g>
				<g id="g9301" transform="translate(274.2157,110.7364)">
					<path id="path9303" class="st1" d="M-11.6,0c-0.1,0-0.1,0-0.2-0.1c-0.5-1.6-0.8-3.8-0.9-4.9l0-4.8h3.9v3.5
						c-0.3,2.5-1.4,4.5-2.5,6C-11.4-0.1-11.5,0-11.6,0"/>
				</g>
				<g id="g9305" transform="translate(275.2708,112.288)">
					<path id="path9307" class="st1" d="M-11.6,0L-11.6,0L-11.6,0c-0.1,0-0.2,0-0.3,0l0.6-0.2c-0.1,0.1-0.1,0.1-0.2,0.2
						C-11.5,0-11.5,0-11.6,0"/>
				</g>
				<g id="g9309" transform="translate(270.9582,111.7478)">
					<path id="path9311" class="st1" d="M-11.6,0c-0.1,0-0.1,0.1-0.2,0.1c0.1-0.1,0.1-0.1,0.2-0.2C-11.6-0.1-11.6,0-11.6,0"/>
				</g>
				<g id="g9313" transform="translate(271.8892,108.761)">
					<path id="path9315" class="st1" d="M-11.6,0c-0.1,0.4-0.2,0.7-0.4,1.1c-0.3-0.6-0.5-1.2-0.6-2c0-0.1,0-0.2,0-0.2l0,0l0,0
						c0-0.5-0.1-1-0.1-1.6c0-0.3,0-0.6,0-1c0.1,0.6,0.2,1.3,0.5,2C-12-1.1-11.8-0.5-11.6,0"/>
				</g>
				<g id="g9317" transform="translate(272.5318,110.9682)">
					<path id="path9319" class="st1" d="M-11.6,0c0.1-0.3,0.1-0.6,0.2-0.9c0.2,0.2,0.4,0.4,0.6,0.5C-11.1-0.3-11.3-0.1-11.6,0"/>
				</g>
				<g id="g9321" transform="translate(272.6622,111.7547)">
					<path id="path9323" class="st1" d="M-11.6,0c-0.1,0.1-0.2,0.1-0.4,0.1c0-0.1,0.1-0.2,0.1-0.4C-11.7-0.1-11.7-0.1-11.6,0"/>
				</g>
				<g id="g9325" transform="translate(273.2104,108.7595)">
					<path id="path9327" class="st1" d="M-11.6,0c0.1,0.6,0.3,1.2,0.4,1.7c-0.3-0.2-0.6-0.5-0.8-0.8c0.1-0.8,0.2-1.7,0.1-2.7V-2
						C-11.8-1.5-11.7-0.7-11.6,0"/>
				</g>
				<g id="g9329" transform="translate(271.1024,109.6873)">
					<path id="path9331" class="st1" d="M-11.6,0c0.1,0.2,0.2,0.4,0.3,0.5c0,0.1-0.1,0.1-0.1,0.2c0,0-0.1,0-0.1,0.1
						C-11.5,0.5-11.5,0.3-11.6,0"/>
				</g>
				<g id="g9333" transform="translate(247.6752,115.468)">
					<path id="path9335" class="st1" d="M-11.6,0c-0.1,0-0.1,0.1-0.2,0.1c0.1-0.1,0.1-0.1,0.2-0.2C-11.6-0.1-11.6,0-11.6,0"/>
				</g>
				<g id="g9337" transform="translate(249.6659,110.328)">
					<path id="path9339" class="st1" d="M-11.6,0c0.1,0.6,0.2,1.3,0.3,2.1c0.1,0.7,0.3,1.2,0.4,1.7c0,0,0,0,0,0
						c-0.6-0.4-0.8-1-0.8-1.7c0-0.6,0.1-1.3,0-1.9V0z"/>
				</g>
				<g id="g9341" transform="translate(252.2075,115.8696)">
					<path id="path9343" class="st1" d="M-11.6,0C-11.6,0-11.6,0-11.6,0l-0.3,0.1L-11.6,0z"/>
				</g>
				<g id="g9345" transform="translate(248.6369,112.3842)">
					<path id="path9347" class="st1" d="M-11.6,0c-0.1,0.4-0.2,0.8-0.4,1.1c-0.3-0.6-0.5-1.3-0.6-2c0-0.1,0-0.2,0-0.2l0,0l0,0
						c0-0.5-0.1-1.1-0.1-1.6c0-0.3,0-0.7,0-1c0.1,0.6,0.2,1.3,0.5,2.1C-12-1.1-11.8-0.5-11.6,0"/>
				</g>
				<g id="g9349" transform="translate(251.9583,115.3455)">
					<path id="path9351" class="st1" d="M-11.6,0c0,0.1,0.1,0.1,0.1,0.2l-0.2,0.1C-11.6,0.2-11.6,0.1-11.6,0"/>
				</g>
				<g id="g9353" transform="translate(247.7292,115.9683)">
					<path id="path9355" class="st1" d="M-11.6,0c-0.2,0-0.3,0.1-0.5,0.1c0.2-0.1,0.3-0.1,0.5-0.2C-11.6-0.1-11.6,0-11.6,0"/>
				</g>
				<g id="g9357" transform="translate(249.3008,114.6633)">
					<path id="path9359" class="st1" d="M-11.6,0c0.1-0.3,0.1-0.6,0.2-1c0.2,0.2,0.4,0.4,0.6,0.6C-11-0.3-11.3-0.1-11.6,0"/>
				</g>
				<g id="g9361" transform="translate(249.4355,115.4757)">
					<path id="path9363" class="st1" d="M-11.6,0c-0.1,0.1-0.2,0.1-0.4,0.1c0-0.1,0.1-0.2,0.1-0.4C-11.7-0.1-11.7-0.1-11.6,0"/>
				</g>
				<g id="g9365" transform="translate(248.9627,114.5589)">
					<path id="path9367" class="st1" d="M-11.6,0c-0.1-0.2-0.2-0.3-0.4-0.5c0.2-0.1,0.4-0.3,0.5-0.5C-11.4-0.6-11.5-0.3-11.6,0"/>
				</g>
				<g id="g9369" transform="translate(249.0113,112.347)">
					<path id="path9371" class="st1" d="M-11.6,0c0.1-0.4,0.2-0.8,0.3-1.3c0,0.6,0,1.2-0.1,1.7C-11.4,0.3-11.5,0.1-11.6,0"/>
				</g>
				<g id="g9373" transform="translate(252.4918,113.159)">
					<path id="path9375" class="st1" d="M-11.6,0c0.6-0.9,1.1-2,1.4-3.2c0,0.2,0,0.4-0.1,0.6c-0.3,1.1-0.8,1.9-1.2,2.5
						C-11.5-0.1-11.5,0-11.6,0"/>
				</g>
				<g id="g9377" transform="translate(255.0858,119.33)">
					<path id="path9379" class="st1" d="M-11.6,0C-11.6,0-11.6,0-11.6,0l0.8-1.6c0.3-0.1,0.6-0.1,1-0.3c0,0.1,0,0.1,0,0.2
						c-0.5,0.8-1,1.2-1.4,1.5C-11.3-0.1-11.4,0-11.6,0"/>
				</g>
				<g id="g9381" transform="translate(253.8069,117.704)">
					<path id="path9383" class="st1" d="M-11.6,0c0.3,0.1,0.9,0.2,1.6,0.1l-0.6,1.1C-11,0.9-11.3,0.4-11.6,0"/>
				</g>
				<g id="g9385" transform="translate(252.0811,116.3783)">
					<path id="path9387" class="st1" d="M-11.6,0L-11.6,0c0.1,0,0.2,0,0.4-0.1l0,0c0.1,0.2,0.2,0.4,0.3,0.6l-0.1,0.9
						C-11.1,1-11.4,0.5-11.6,0"/>
				</g>
				<g id="g9389" transform="translate(257.0712,119.5408)">
					<path id="path9391" class="st1" d="M-11.6,0c0,0.4,0.1,0.8,0.1,1l0,0l0,0.1c0,0.1,0,0.2,0,0.2c-0.6-0.3-1.2-0.7-1.7-1.1
						C-12.8,0.2-12.2,0.1-11.6,0"/>
				</g>
				<g id="g9393" transform="translate(253.1529,118.368)">
					<path id="path9395" class="st1" d="M-11.6,0l0-0.8c0.4,0.7,0.9,1.3,1.4,1.9C-10.7,0.9-11.2,0.5-11.6,0"/>
				</g>
				<g id="g9397" transform="translate(257.1412,115.9041)">
					<path id="path9399" class="st1" d="M-11.6,0c0.1,0.2,0.2,0.5,0.3,0.7c0,0.1-0.1,0.1-0.1,0.2c0,0-0.1,0.1-0.1,0.1
						C-11.5,0.7-11.5,0.3-11.6,0"/>
				</g>
				<g id="g9401" transform="translate(252.2368,113.9305)">
					<path id="path9403" class="st1" d="M-11.6,0c0.2-0.2,0.4-0.4,0.6-0.7c0.3-0.3,0.5-0.7,0.8-1.2c-0.2,1.5-0.5,2.4-0.8,3L-11.6,0z
						"/>
				</g>
				<g id="g9405" transform="translate(254.1743,116.6936)">
					<path id="path9407" class="st1" d="M-11.6,0L-11.6,0L-11.6,0c-0.2,0.3-0.4,0.5-0.6,0.6l-0.1,0c-0.3-0.4-0.5-0.9-0.7-1.3
						c0.1-0.1,0.2-0.3,0.3-0.4l0.1,0l0-0.1c0.4-0.8,0.8-2.3,1.1-4.9c0.2-0.6,0.1-2.2,0.1-2.2v-7.4h0.4l0,5.6c0,0.2,0.2,2.5,1,4.6
						C-10.3-3.4-10.8-1.1-11.6,0"/>
				</g>
				<g id="g9409" transform="translate(260.8102,112.0886)">
					<path id="path9411" class="st1" d="M-11.6,0c0,0-0.1,0-0.1,0.1c0-0.3-0.1-0.6-0.1-0.8c0.1,0.2,0.2,0.4,0.3,0.6
						C-11.5-0.1-11.5-0.1-11.6,0"/>
				</g>
				<g id="g9413" transform="translate(248.8682,112.8276)">
					<path id="path9415" class="st1" d="M-11.6,0c0.1,0.1,0.1,0.2,0.2,0.3l0,0c-0.1,0.2-0.3,0.4-0.5,0.5C-11.8,0.6-11.7,0.3-11.6,0"
						/>
				</g>
				<g id="g9417" transform="translate(257.3204,117.7972)">
					<path id="path9419" class="st1" d="M-11.6,0c0.1-0.2,0.3-0.5,0.4-0.7c0,0,0,0,0,0c0.2,0.3,0.4,0.5,0.6,0.8
						c-0.3,0.2-0.7,0.3-1,0.5C-11.5,0.3-11.5,0.2-11.6,0"/>
				</g>
				<g id="g9421" transform="translate(247.971,114.8858)">
					<path id="path9423" class="st1" d="M-11.6,0c0.1-0.2,0.2-0.4,0.3-0.6c0,0,0,0,0,0c0.1,0.2,0.3,0.4,0.5,0.6
						c-0.3,0.1-0.5,0.3-0.8,0.4C-11.5,0.3-11.6,0.1-11.6,0"/>
				</g>
				<g id="g9425" transform="translate(247.8244,113.3407)">
					<path id="path9427" class="st1" d="M-11.6,0c0.1,0.2,0.2,0.4,0.3,0.6c0,0.1-0.1,0.1-0.1,0.2c0,0-0.1,0-0.1,0.1
						C-11.5,0.5-11.5,0.3-11.6,0"/>
				</g>
				<g id="g9429" transform="translate(249.3246,116.9868)">
					<path id="path9431" class="st1" d="M-11.6,0C-11.6,0-11.6,0-11.6,0C-11.6,0-11.6,0-11.6,0l0.3-0.1C-11.4-0.1-11.5,0-11.6,0"/>
				</g>
				<g id="g9433" transform="translate(247.5601,114.3112)">
					<path id="path9435" class="st1" d="M-11.6,0c-0.2,0.1-0.4,0.1-0.6,0.2l0.5-0.9C-11.6-0.5-11.6-0.2-11.6,0"/>
				</g>
				<g id="g9437" transform="translate(248.6888,116.8432)">
					<path id="path9439" class="st1" d="M-11.6,0c0.1-0.2,0.2-0.5,0.3-0.8c0.2-0.1,0.4-0.1,0.6-0.2L-11.6,0L-11.6,0z"/>
				</g>
				<g id="g9441" transform="translate(244.5695,115.3517)">
					<path id="path9443" class="st1" d="M-11.6,0l0-0.7c0.4,0.6,0.7,1.1,1.1,1.5C-10.8,0.7-11.2,0.4-11.6,0"/>
				</g>
				<g id="g9445" transform="translate(348.629,103.5417)">
					<path id="path9447" class="st1" d="M-11.6,0l-0.6,1.5H-15L-15.6,0h-1.5l2.9,6.7h1.4L-10,0H-11.6z M-20.3,0l-1.5,4.4L-23.3,0
						h-1.3l-2.3,6.7h1.6l1.4-4.5l1.5,4.5h1.3l1.5-4.5l1.4,4.5h1.5L-19,0L-20.3,0z M-27.6,15.2l-0.3,0.9l0.9,3.8c0,0,0,0,0,0l0.2-0.7
						l0.2-0.7l0.2-0.9l0.2-0.7l0.1-0.3l-0.4-1.8c-0.3,0-0.7,0-1,0L-27.6,15.2z M-28.2,14.7l0.2,0.9h0l0.2-0.6l0.1-0.2
						C-27.9,14.8-28,14.7-28.2,14.7 M-29.9,14.6l-0.2,0.8l0.8,3.8c0.1,0,0.1,0,0.2,0.1l0.9-3.2l0,0l-0.3-1.4
						C-28.9,14.7-29.4,14.6-29.9,14.6 M-30.2,14.6l0.1,0.2l0,0l0-0.2C-30.2,14.6-30.2,14.6-30.2,14.6 M-30.3,15.4l-0.2-0.8
						c-0.5-0.1-1-0.1-1.5-0.2l-0.1,0.4l0.8,3.6c0.1,0,0.1,0.1,0.2,0.1L-30.3,15.4z M-30.6,0.2c0-1.3-0.6-1.8-1.8-1.8l-0.1,0.6
						c0.7,0.1,1,0.4,0.9,0.9h-0.6v1.5h1.5L-30.6,0.2z M-33.3,0h-5.1v6.7h5V5.4h-3.6V4h3.1V2.7h-3.1V1.3h3.6V0z M-38.5,12.2
						c0.2,0.2,0.4,0.5,0.6,0.7l0,0l0-0.4C-38.3,12.4-38.5,12.2-38.5,12.2 M-39.5,0h-4.8v6.7h1.5V1.3h3.3L-39.5,0z M-44,11.3
						L-44,11.3c0,0-0.1,0-0.1,0.1l-0.1,0.3l-0.1,0.5c0,0,0-0.1,0.1-0.1c0,0,0,0,0,0c0.1-0.1,0.2-0.3,0.3-0.4
						c0.1-0.2,0.2-0.3,0.3-0.4c0.2-0.2,0.2-0.3,0.2-0.3 M-45.2,11.8l0.4,0.9c0.1-0.1,0.1-0.1,0.2-0.2l0.1-0.2l0.2-0.8
						C-44.7,11.6-44.9,11.7-45.2,11.8 M-45.4,5.3h-2V0h-1.5v5.3h-2v1.4h5.5L-45.4,5.3z M-51.5,14l0.6,3c0,0,0.1,0,0.2-0.1l0.9-3.6
						c-0.5,0.1-1.1,0.2-1.6,0.3L-51.5,14z M-51.6,5.3h-2V0h-1.5v5.3h-2v1.4h5.5L-51.6,5.3z M-58.3,0l-0.6,1.5h-2.8L-62.4,0h-1.5
						l2.9,6.7h1.4l2.9-6.7H-58.3z M-64.6,0h-5.1v6.7h5V5.4h-3.6V4h3.1V2.7h-3.1V1.3h3.6V0z M-71,2c0-1.3-1-2.1-2.5-2.1
						c-1,0-2,0.4-2.8,1.1l0.9,1c0.6-0.5,1.2-0.8,2-0.8c0.6,0,1,0.2,1,0.6v0c0,0.4-0.2,0.6-1.3,0.8C-75.1,3-76,3.4-76,4.7v0
						c0,1.2,1,2,2.3,2c1,0,1.8-0.3,2.5-0.8l-0.8-1.1c-0.6,0.4-1.2,0.7-1.7,0.7c-0.6,0-0.9-0.3-0.9-0.6v0c0-0.4,0.3-0.6,1.4-0.9
						C-71.7,3.6-71,3.1-71,2L-71,2z M-74.2,11.2l0.1-0.4l-0.6-0.2C-74.6,10.7-74.4,11-74.2,11.2 M-73.2,12.3
						C-73.2,12.3-73.2,12.3-73.2,12.3L-73.2,12.3L-73.2,12.3l-0.2-1.3l-0.5-0.1l-0.1,0.6C-73.7,11.7-73.4,12-73.2,12.3 M-72.8,12.6
						c0.1,0.1,0.2,0.2,0.4,0.4l0.5-1.6l-1.2-0.3L-72.8,12.6z M-70.9,14.2L-70.9,14.2l-0.5-2.7l-0.2-0.1l-0.6,1.7
						C-71.8,13.5-71.4,13.9-70.9,14.2 M-70.9,17.3h1.1v-0.5h-1.1V17.3z M-70.9,18.7h1.1v-0.5h-1.1V18.7z M-70.9,20.1h1.1v-0.5h-1.1
						V20.1z M-70.9,21.5h1.1V21h-1.1V21.5z M-70.9,22.9h1.1v-0.5h-1.1V22.9z M-69,17.3h0.8c-0.3-0.1-0.6-0.3-0.8-0.4V17.3z
						 M-69,18.7h1.1v-0.5H-69V18.7z M-66.5,28.2h0.7v-1.1h-0.7V28.2z M-65.1,28.2h0.7v-1.1h-0.7V28.2z M-66.1,17.2
						C-66.1,17.2-66.1,17.2-66.1,17.2l1-3.1l-0.2-0.9c-0.3-0.1-0.5-0.1-0.6-0.2c-0.1,0-0.2-0.1-0.2-0.1l-0.8-0.2L-67,13L-66.1,17.2z
						 M-68,16.2c0.5,0.3,1.1,0.6,1.6,0.8v0l-0.8-3.5v0L-68,16.2z M-68.4,16c0.1,0,0.1,0.1,0.2,0.1l0.9-3.1l-0.1-0.4l-1.9-0.6
						L-68.4,16z M-69.6,12.1L-69.6,12.1l-1.6-0.5l0.6,2.9c0.1,0.1,0.2,0.1,0.2,0.2l0.2-0.8L-69.6,12.1z M-70,14.1l-0.2,0.7l0,0
						c0.5,0.4,1,0.7,1.4,1l0,0l-0.8-3.2l0,0L-70,14.1z M-64.1,18l-0.9-3.4l-0.2,0.6l-0.6,2.1C-65.2,17.6-64.6,17.8-64.1,18
						 M-62.9,14.7L-62.9,14.7l-0.3-1c-0.5-0.1-1-0.2-1.5-0.3l-0.2,0.7l1,3.8L-62.9,14.7z M-63.7,28.2h0.7v-1.1h-0.7V28.2z
						 M-61.9,18.6l-0.8-3.4l-0.8,2.9C-63,18.3-62.5,18.5-61.9,18.6z M-60.7,15.6H-62l0,0v-1.8c-0.1,0-0.3,0-0.4,0l-0.3,0.9l1,3.8
						L-60.7,15.6z M-59.6,19L-59.6,19L-59.6,19l-0.2-0.6l0,0l0-0.1l-0.7-2.7l-1,3.1C-60.7,18.8-60.1,18.9-59.6,19 M-59.7,22.9h1.1
						v-0.5h-1.1V22.9z M-58.4,15.6h-0.2h-1.1h-0.4l0.6,2.3l0.1,0.5l0,0.1l0-0.1l0.2-0.5L-58.4,15.6z M-58.3,19
						c0.3,0,0.6-0.1,0.8-0.1l-0.4-1.5l-0.1-0.5l0,0l-0.3-1.2l-0.7,2.2l-0.2,0.5l0,0l-0.2,0.6l0,0c0.3,0,0.6,0,0.7,0
						C-58.4,19-58.3,19-58.3,19 M-56.1,15.1L-56.1,15.1l-0.2-1c-0.5,0-0.7,0-0.7,0v0.2v1.2l0,0H-58l0.3,1.3l0.1,0.5l0.3,1.4
						L-56.1,15.1z M-55.3,18.5L-55.3,18.5l-0.5-2.1l-0.1-0.5l-0.1-0.3l0,0l-0.1,0.2l0,0.1l-0.1,0.5l-0.2,0.7l-0.5,1.7
						C-56.4,18.8-55.8,18.7-55.3,18.5 M-54.5,16.7l0.6-2l-0.2-0.7c-0.1,0-0.3,0-0.4,0c-0.4,0-0.7,0.1-1,0.1l-0.1,0.3l-0.2,0.7
						l0.2,0.8l0.1,0.5l0.5,2L-54.5,16.7z M-53.8,14L-53.8,14C-53.8,14-53.8,14-53.8,14c-0.1,0-0.1,0-0.1,0l0.1,0.2L-53.8,14
						L-53.8,14L-53.8,14z M-54.7,18.4c0.1,0,0.1,0,0.2-0.1c0.3-0.1,0.5-0.2,0.8-0.2c0.1,0,0.1,0,0.2,0c0.2,0,0.3-0.1,0.5-0.2l0,0
						l-0.7-2.5l0,0l-0.1-0.2l-0.7,2.5L-54.7,18.4z M-52.9,17.8L-52.9,17.8l1.1-3.8l-0.1-0.3c-0.6,0.1-1.1,0.2-1.6,0.2l-0.2,0.8
						L-52.9,17.8z M-51.1,17.1L-51.1,17.1l-0.6-2.6l-0.3,0.9l-0.6,2.3C-52.1,17.5-51.6,17.3-51.1,17.1 M-52.3,22.1L-52.3,22.1h0.8
						v-1.4h-0.8V22.1z M-51.1,19.8h0.8v-1.4h-0.8V19.8z M-49.4,16.2c0.2-0.1,0.3-0.2,0.5-0.3l-0.2-0.6l0,0l-0.4-1.4l-0.1-0.3
						l-0.8,3.1c0.3-0.1,0.5-0.3,0.7-0.4C-49.6,16.3-49.5,16.3-49.4,16.2 M-49.7,17.6L-49.7,17.6h0.8l0,0V17
						c-0.3,0.1-0.5,0.3-0.8,0.4V17.6z M-49.7,19.8h0.8v-1.4h-0.8V19.8z M-49.7,22.1h0.8v-1.4h-0.8V22.1z M-48.7,15.8l0.7-3
						c-0.5,0.2-1,0.3-1.5,0.4l0,0l0.2,0.8l0.4,1.2L-48.7,15.8C-48.7,15.8-48.7,15.8-48.7,15.8 M-48.1,15.4c0.2-0.2,0.5-0.3,0.7-0.5
						c0.1-0.1,0.3-0.2,0.4-0.3l0,0l-0.6-1.9c0,0,0,0,0,0c0,0,0,0-0.1,0L-48,14l-0.1,0.6l-0.1,0.2l-0.2,0.8
						C-48.3,15.5-48.2,15.5-48.1,15.4 M-46.8,14.5C-46.8,14.4-46.7,14.4-46.8,14.5l0.6-2.3c-0.4,0.2-0.8,0.3-1.2,0.4L-46.8,14.5z
						 M-45,12.9L-45,12.9l-0.4-1c-0.1,0.1-0.3,0.1-0.4,0.2l-0.5,2C-45.9,13.7-45.4,13.3-45,12.9 M-43.1,13.2L-43.1,13.2v-0.4h-0.1
						c-0.1,0.1-0.3,0.3-0.4,0.4l0,0H-43.1z M-44.2,14L-44.2,14h1.1v-0.4h-1c0,0-0.1,0.1-0.1,0.1V14z M-44.2,14.8h1.1v-0.4h-1.1V14.8
						z M-44.2,15.6h1.1v-0.4h-1.1V15.6z M-44.2,16.3L-44.2,16.3h1.1l0,0v-0.4h-1.1V16.3z M-44.2,17.1h1.1v-0.4h-1.1V17.1z
						 M-44.2,17.9h1.1v-0.4h-1.1V17.9z M-41.5,11.7h0.2c-0.1-0.1-0.2-0.2-0.2-0.3V11.7z M-41.5,12.5L-41.5,12.5h1
						c-0.1-0.1-0.3-0.3-0.4-0.4h-0.6V12.5z M-41.5,13.2L-41.5,13.2h1.1l0,0v-0.4h-1.1V13.2z M-41.5,14L-41.5,14h1.1v-0.4h-1.1V14z
						 M-41.5,14.8h1.1v-0.4h-1.1V14.8z M-41.5,15.6h1.1v-0.4h-1.1V15.6z M-41.5,16.3L-41.5,16.3h1.1l0,0v-0.4h-1.1V16.3z
						 M-41.5,17.1h1.1v-0.4h-1.1V17.1z M-41.5,17.9h1.1v-0.4h-1.1V17.9z M-37.6,13.3c0.2,0.2,0.4,0.4,0.6,0.6l0.1-0.2l0.2-0.6
						c-0.3-0.1-0.6-0.2-0.8-0.4L-37.6,13.3z M-36.9,14.1c0.2,0.2,0.4,0.4,0.7,0.7c0.1,0.1,0.3,0.3,0.4,0.4l-0.3-1.9c0,0-0.1,0-0.1,0
						c-0.1,0-0.3-0.1-0.4-0.1l-0.2,0.7L-36.9,14.1z M-35.2,15.7l0.6-1.9c-0.4-0.1-0.9-0.2-1.2-0.4l0.4,2
						C-35.3,15.5-35.2,15.6-35.2,15.7 M-33.7,16.8l-0.6-3l-0.6,2C-34.5,16.2-34.1,16.5-33.7,16.8 M-33.3,17c0.1,0.1,0.2,0.1,0.3,0.2
						l0.2-0.7l0.5-1.8l-0.1-0.5c-0.4-0.1-0.8-0.2-1.2-0.2h0c-0.1,0-0.3-0.1-0.4-0.1l0.4,1.8L-33.3,17z M-32.9,17.4
						c0.4,0.3,0.9,0.5,1.3,0.8l0,0l-0.7-2.9L-32.9,17.4z M-29.5,19.1l-0.7-3.2l0,0l-0.7,2.6C-30.4,18.7-30,18.9-29.5,19.1
						 M-29.6,24.8h2.3v-0.4h-2.3V24.8z M-27.3,19.8l-0.8-3.2l0,0l-0.8,2.7C-28.3,19.5-27.7,19.7-27.3,19.8 M-29.6,25.9h2.3v-0.4
						h-2.3V25.9z M-26.9,24h0.8v-0.7h-0.8V24z M-26.8,26h2.5v-1.6h-2.5L-26.8,26z M-23.2,20.1C-23.2,20.1-23.1,20.1-23.2,20.1
						L-23.2,20.1l-0.6-3l-0.8,3.1C-23.7,20.2-23.2,20.1-23.2,20.1 M-23.8,16l0.3-1.3c-0.2,0-0.4,0-0.6,0L-23.8,16z M-25.8,16.6
						l0.2,0.9l0,0.2l0.2,0.9l0.2,0.7l0.2,0.9l0.9-3.6l-0.4-1.8c-0.3,0-0.6,0-0.9,0L-25.8,16.6z M-25.9,16l0.3-1.2
						c-0.2,0-0.4,0-0.7,0L-25.9,16z M-25.5,20.9v0.4h0.8v-0.4C-25,20.9-25.3,20.9-25.5,20.9 M-26.5,19.3l-0.2,0.6
						c0.6,0.1,1.1,0.2,1.6,0.2l-0.2-1l-0.2-0.7l-0.4-1.4l-0.4,1.4l-0.2,0.7L-26.5,19.3z M-22.9,20.1l1-3.5l-0.4-1.9
						c-0.3,0-0.6,0-0.9,0.1c0,0,0,0-0.1,0l-0.5,1.8L-22.9,20.1C-22.9,20.1-22.9,20.1-22.9,20.1 M-21.2,19.7L-21.2,19.7l-0.5-2.6
						l-0.8,2.9C-22.1,19.9-21.6,19.8-21.2,19.7 M-21.3,14.6c-0.2,0-0.5,0-0.7,0.1l0.3,1.4L-21.3,14.6z M-20.9,19.6
						C-20.8,19.6-20.8,19.6-20.9,19.6l1-3.4l-0.4-1.7l-0.6,0.1l-0.1,0l0,0l-0.4,1.6l-0.1,0.4L-20.9,19.6
						C-20.9,19.6-20.9,19.6-20.9,19.6 M-19.2,19l-0.5-2.3l-0.8,2.8C-20.1,19.3-19.6,19.2-19.2,19 M-19.3,14.3l-0.7,0.1l0.3,1.3
						L-19.3,14.3z M-18.9,18.8l1-3.2l-0.3-1.5l-0.8,0.1l-0.6,1.9l0.6,2.7C-18.9,18.9-18.9,18.9-18.9,18.8 M-17.3,18.1l-0.4-2
						l-0.8,2.6C-18.1,18.5-17.7,18.3-17.3,18.1 M-17.3,14l-0.6,0.1l0.2,1.1L-17.3,14z M-16.9,17.9l1-3.5l-0.1-0.5l-1,0.1l-0.5,1.7
						L-17,18C-17,18-16.9,17.9-16.9,17.9 M-15.8,13.8L-15.8,13.8L-15.8,13.8L-15.8,13.8z M-15.4,17l-0.4-2.1l-0.8,2.8
						C-16.1,17.5-15.7,17.2-15.4,17 M-14.9,16.7l1-3.1l-1.5,0.2l-0.2,0.6l0.5,2.5C-15,16.8-15,16.7-14.9,16.7 M-13.4,15.5l-0.4-1.7
						l-0.8,2.6C-14.2,16.1-13.8,15.8-13.4,15.5 M-13,15.2l0.5-1.9l-1,0.1l0.4,1.9C-13.2,15.3-13.1,15.2-13,15.2 M-11.1,13.1
						l-1.1,0.2l-0.4,1.6C-11.6,13.9-11.1,13.1-11.1,13.1 M-79.9,19.5h-0.7v1.1h0.7V19.5z M-81.3,21.4H-82v1.1h0.7V21.4z M-81.3,19.5
						H-82v1.1h0.7V19.5z M-84.7,28.7L-84.7,28.7L-84.7,28.7l-0.6-0.1v0.6h0.1v0.1h0.6V28.7z M-85.6,28.7L-85.6,28.7L-85.6,28.7
						l-0.6-0.1v0.6h0.1v0.1h0.6V28.7z M-86.5,21.4h-0.7v1.1h0.7V21.4z M-87.2,29.2L-87.2,29.2L-87.2,29.2l0.6,0.1v-0.6h-0.1v-0.1
						h-0.6V29.2z M-87.6,28.7L-87.6,28.7L-87.6,28.7l-0.6-0.1v0.6h0.1v0.1h0.6L-87.6,28.7z M-87.7,21.4h-0.7v1.1h0.7V21.4z
						 M-88.5,28.7L-88.5,28.7L-88.5,28.7l-0.6-0.1v0.6h0.1v0.1h0.6V28.7z M-89.3,15.5L-89.3,15.5L-89.3,15.5l-0.8-0.1v1.1h0.1v0.1
						h0.7V15.5z M-92.8,19.5L-92.8,19.5L-92.8,19.5l-0.7-0.1v0.8h0.1v0.1h0.7V19.5z M-93.6,21.3L-93.6,21.3h0.7v-0.8h-0.7V21.3z
						 M-93.6,22.4L-93.6,22.4h0.7v-0.8h-0.7V22.4z M-93.6,23.4L-93.6,23.4h0.7v-0.8h-0.7V23.4z M-93.6,24.5L-93.6,24.5h0.7v-0.8
						h-0.7V24.5z M-93.6,25.5L-93.6,25.5h0.7v-0.8h-0.7V25.5z M-93.6,26.6L-93.6,26.6h0.7v-0.8h-0.7V26.6z M-93.6,27.6L-93.6,27.6
						h0.7v-0.8h-0.7V27.6z M-93.6,28.7L-93.6,28.7h0.7v-0.8h-0.7V28.7z M-93.6,29.7L-93.6,29.7h0.7v-0.8h-0.7V29.7z M-93.6,30.8
						L-93.6,30.8h0.7V30h-0.7V30.8z M-93.6,31.8L-93.6,31.8h0.7V31h-0.7V31.8z M-93.9,19.5L-93.9,19.5L-93.9,19.5l-0.7-0.1v0.8h0.1
						v0.1h0.7V19.5z M-94.7,21.3L-94.7,21.3h0.7v-0.8h-0.7V21.3z M-94.7,22.4L-94.7,22.4h0.7v-0.8h-0.7V22.4z M-94.7,23.4
						L-94.7,23.4h0.7v-0.8h-0.7V23.4z M-94.7,24.5L-94.7,24.5h0.7v-0.8h-0.7V24.5z M-94.7,25.5L-94.7,25.5h0.7v-0.8h-0.7V25.5z
						 M-94.7,26.6L-94.7,26.6h0.7v-0.8h-0.7V26.6z M-94.7,27.6L-94.7,27.6h0.7v-0.8h-0.7V27.6z M-94.7,28.7L-94.7,28.7h0.7v-0.8
						h-0.7V28.7z M-94.7,29.7L-94.7,29.7h0.7v-0.8h-0.7V29.7z M-94.7,30.8L-94.7,30.8h0.7V30h-0.7V30.8z M-94.7,31.8L-94.7,31.8h0.7
						V31h-0.7V31.8z M-95,19.5L-95,19.5L-95,19.5l-0.7-0.1v0.8h0.1v0.1h0.7V19.5z M-96.1,19.5L-96.1,19.5L-96.1,19.5l-0.7-0.1v0.8
						h0.1v0.1h0.7V19.5z M-96.9,21.3L-96.9,21.3h0.7v-0.8h-0.7V21.3z M-96.9,22.4L-96.9,22.4h0.7v-0.8h-0.7V22.4z M-96.9,23.4
						L-96.9,23.4h0.7v-0.8h-0.7V23.4z M-96.9,24.5L-96.9,24.5h0.7v-0.8h-0.7V24.5z M-96.9,25.5L-96.9,25.5h0.7v-0.8h-0.7V25.5z
						 M-96.9,26.6L-96.9,26.6h0.7v-0.8h-0.7V26.6z M-96.9,27.6L-96.9,27.6h0.7v-0.8h-0.7V27.6z M-96.9,28.7L-96.9,28.7h0.7v-0.8
						h-0.7V28.7z M-96.9,29.7L-96.9,29.7h0.7v-0.8h-0.7V29.7z M-96.9,30.8L-96.9,30.8h0.7V30h-0.7V30.8z M-96.9,31.8L-96.9,31.8h0.7
						V31h-0.7V31.8z M-95.8,21.3L-95.8,21.3h0.7v-0.8h-0.7V21.3z M-95.8,22.4L-95.8,22.4h0.7v-0.8h-0.7V22.4z M-95.8,23.4
						L-95.8,23.4h0.7v-0.8h-0.7V23.4z M-95.8,24.5L-95.8,24.5h0.7v-0.8h-0.7V24.5z M-95.8,25.5L-95.8,25.5h0.7v-0.8h-0.7V25.5z
						 M-95.8,26.6L-95.8,26.6h0.7v-0.8h-0.7V26.6z M-95.8,27.6L-95.8,27.6h0.7v-0.8h-0.7V27.6z M-95.8,28.7L-95.8,28.7h0.7v-0.8
						h-0.7V28.7z M-95.8,29.7L-95.8,29.7h0.7v-0.8h-0.7V29.7z M-95.8,30.8L-95.8,30.8h0.7V30h-0.7V30.8z M-95.8,31.8L-95.8,31.8h0.7
						V31h-0.7V31.8z M-100.3,32.4h-0.7v2h0.7V32.4z M-100.6,23.6h-0.7v2h0.7V23.6z M-102.2,23.6h-0.7v2h0.7V23.6z M-103.4,40.8h-1.8
						v1h1.8V40.8z M-103.4,39.2h-1.8v1h1.8V39.2z M-103.4,37.6h-1.8v1h1.8V37.6z M-103.5,26.6h-0.7v2h0.7V26.6z M-103.5,23.6h-0.7v2
						h0.7V23.6z M-105.5,40.8h-1.8v1h1.8V40.8z M-105.5,39.2h-1.8v1h1.8V39.2z M-105.5,37.6h-1.8v1h1.8V37.6z M-105.9,28.9h-0.7v2
						h0.7V28.9z M-107.3,23.6h-0.7v2h0.7V23.6z M-111.7,37.9h-5.9v0.3h5.9V37.9z M-111.7,37.2h-5.9v0.3h5.9V37.2z M-111.7,36.4h-5.9
						v0.3h5.9V36.4z M-111.7,35.7h-5.9V36h5.9V35.7z M-111.7,35h-5.9v0.3h5.9V35z M-111.7,34.3h-5.9v0.3h5.9V34.3z M-111.7,33.5
						h-5.9v0.3h5.9V33.5z M-111.7,32.8h-5.9v0.3h5.9V32.8z M-111.7,32.1h-5.9v0.3h5.9V32.1z M-114.6,27h-0.7v1.5h0.7V27z
						 M-114.6,24.9h-0.7v1.5h0.7V24.9z M-116.4,27h-0.7v1.5h0.7V27z M-123.3,46.6h-0.5v0.8h0.5V46.6z M-123.3,45.1h-0.5v0.8h0.5
						V45.1z M-123.3,43.6h-0.5v0.8h0.5V43.6z M-123.3,42.1h-0.5v0.8h0.5V42.1z M-123.3,40.5h-0.5v0.8h0.5V40.5z M-123.3,39h-0.5v0.8
						h0.5V39z M-123.3,35.9h-0.5v0.8h0.5V35.9z M-123.3,32.9h-0.5v0.8h0.5V32.9z M-123.3,31.4h-0.5v0.8h0.5V31.4z M-123.3,28.3h-0.5
						v0.8h0.5V28.3z M-123.3,26.8h-0.5v0.8h0.5V26.8z M-123.3,25.2h-0.5v0.8h0.5V25.2z M-123.3,22.2h-0.5V23h0.5V22.2z M-123.3,20.7
						h-0.5v0.8h0.5V20.7z M-123.3,19.1h-0.5v0.8h0.5V19.1z M-123.3,17.6h-0.5v0.8h0.5V17.6z M-123.3,16.1h-0.5v0.8h0.5V16.1z
						 M-123.3,10h-0.5v0.8h0.5V10z M-123.3,6.9h-0.5v0.8h0.5V6.9z M-123.3,2.3h-0.5v0.8h0.5V2.3z M-123.3,0.8h-0.5v0.8h0.5V0.8z
						 M-124.3,48.2h-0.5V49h0.5V48.2z M-124.3,43.6h-0.5v0.8h0.5V43.6z M-124.3,39h-0.5v0.8h0.5V39z M-124.3,37.5h-0.5v0.8h0.5V37.5
						z M-124.3,35.9h-0.5v0.8h0.5V35.9z M-124.3,34.4h-0.5v0.8h0.5V34.4z M-124.3,32.9h-0.5v0.8h0.5V32.9z M-124.3,26.8h-0.5v0.8
						h0.5V26.8z M-124.3,25.2h-0.5v0.8h0.5V25.2z M-124.3,20.7h-0.5v0.8h0.5V20.7z M-124.3,19.1h-0.5v0.8h0.5V19.1z M-124.3,17.6
						h-0.5v0.8h0.5V17.6z M-124.3,16.1h-0.5v0.8h0.5V16.1z M-124.3,13h-0.5v0.8h0.5V13z M-124.3,10h-0.5v0.8h0.5V10z M-124.3,6.9
						h-0.5v0.8h0.5V6.9z M-124.3,5.4h-0.5v0.8h0.5V5.4z M-124.3,2.3h-0.5v0.8h0.5V2.3z M-125.3,48.2h-0.5V49h0.5V48.2z M-125.3,46.6
						h-0.5v0.8h0.5V46.6z M-125.3,45.1h-0.5v0.8h0.5V45.1z M-125.3,40.5h-0.5v0.8h0.5V40.5z M-125.3,34.4h-0.5v0.8h0.5V34.4z
						 M-125.3,28.3h-0.5v0.8h0.5V28.3z M-125.3,25.2h-0.5v0.8h0.5V25.2z M-125.3,22.2h-0.5V23h0.5V22.2z M-125.3,20.7h-0.5v0.8h0.5
						V20.7z M-125.3,19.1h-0.5v0.8h0.5V19.1z M-125.3,17.6h-0.5v0.8h0.5V17.6z M-125.3,11.5h-0.5v0.8h0.5V11.5z M-125.3,8.4h-0.5
						v0.8h0.5V8.4z M-126.3,48.2h-0.5V49h0.5V48.2z M-126.3,45.1h-0.5v0.8h0.5V45.1z M-126.3,43.6h-0.5v0.8h0.5V43.6z M-126.3,40.5
						h-0.5v0.8h0.5V40.5z M-126.3,39h-0.5v0.8h0.5V39z M-126.3,37.5h-0.5v0.8h0.5V37.5z M-126.3,32.9h-0.5v0.8h0.5V32.9z
						 M-126.3,28.3h-0.5v0.8h0.5V28.3z M-126.3,25.2h-0.5v0.8h0.5V25.2z M-126.3,23.7h-0.5v0.8h0.5V23.7z M-126.3,20.7h-0.5v0.8h0.5
						V20.7z M-126.3,19.1h-0.5v0.8h0.5V19.1z M-126.3,17.6h-0.5v0.8h0.5V17.6z M-126.3,16.1h-0.5v0.8h0.5V16.1z M-126.3,14.5h-0.5
						v0.8h0.5V14.5z M-126.3,10h-0.5v0.8h0.5V10z M-126.3,6.9h-0.5v0.8h0.5V6.9z M-126.3,2.3h-0.5v0.8h0.5V2.3z M-130.6,8.5h-1.8V9
						h1.4v0.1h0.4V8.5z M-130.6,0l-0.8,7.5l0.8,0.3V0z M-133.5-0.5l-0.4,3.9h0.8l0.7-3.9L-133.5-0.5z M-134,7l0.9,0l0.3-2.9h-1.2V7z
						 M-134.1,9.1h1V8.3h-1V9.1z M-134.2,10.6h1l0-0.6l-1,0.1V10.6z M-134.3,14.2h1l0.1-2.9l-1.1,0L-134.3,14.2z M-134.4,18h0.7
						l0.2-3l-1,0L-134.4,18z M-134.6,21.8h0.9l0.1-3.1l-1,0V21.8z M-134.6,25.4h0.6l0.3-3.1h-0.9V25.4z M-134.5,29.1l0.4-3l-0.6,0
						L-134.5,29.1z M-134.9,8.5h-4.5V9h4.5V8.5z M-136.6-0.5h-3.7l1,7.3l2.6,0.1V-0.5z M-138,17.9h1.6l0-8l-2.3,0L-138,17.9z
						 M-136.5,29.2C-136.5,29.2-136.5,29.3-136.5,29.2c0.1,0,0.1,0,0.2,0l0,0l0-10.5l-1.6-0.1L-136.5,29.2z M-137.4,42.3
						c-0.5,2.6-0.8,5.4-1.3,8c0.3,0,0.6,0,0.8-0.1c0.2-2.1,0.4-4.2,0.6-6.3c0.1-0.7,0.2-1.4,0.1-2.1
						C-137.4,42-137.4,42.2-137.4,42.3 M-137.4,50.2c0.1,0,0.3,0,0.4-0.1c0.1-2.8,0.5-5.5,0.6-8.3c-0.2,0-0.2,0.3-0.2,0.4
						c-0.1,0.5-0.1,1.1-0.1,1.6c-0.2,2-0.4,4.2-0.6,6.3V50.2z M-134,50.2h0.4c-0.2-1.3-0.3-2.6-0.5-3.9C-134.1,47.6-134,49-134,50.2
						 M-132.4,50.4C-132.4,50.4-132.4,50.4-132.4,50.4c-0.2-2.6-0.6-5.2-1-7.7c-0.1-0.3,0-0.7-0.4-0.9c-0.2,0.3-0.1,0.7-0.1,1
						c0.2,2.4,0.5,5,0.8,7.4C-132.9,50.3-132.6,50.4-132.4,50.4 M-143.9,35.7h-0.8v1.1h0.8V35.7z M-143.9,34.1h-0.8v1.1h0.8V34.1z
						 M-145.1,38.3h-0.8v1.1h0.8V38.3z M-145.1,35.7h-0.8v1.1h0.8V35.7z M-147.5,18.2h-1v1.2h1V18.2z M-148.4,36.8h0.8v-1.1h-0.8
						V36.8z M-150.9,24.8h-0.9v1.9h0.9V24.8z M-159.9,37.7h-0.8v0.8h0.8V37.7z M-161.2,37.7h-0.8v0.8h0.8V37.7z M-162.5,37.7h-0.8
						v0.8h0.8V37.7z M-162.7,22.2h-0.9v1.9h0.9V22.2z M-162.7,19h-0.9v1.9h0.9V19z M-162.7,15.8h-0.9v1.9h0.9V15.8z M-163.7,37.7
						h-0.8v0.8h0.8V37.7z M-164.5,15.8h-0.9v1.9h0.9V15.8z M-165.8,25.1h-0.9v1.9h0.9V25.1z M-165.9,38.6h0.8v-0.8h-0.8V38.6z
						 M-9.3,12.8c-4.1,5-8.6,6.9-11.6,7.6c-0.2,0-0.4,0.1-0.6,0.1c0.2,0,0.4-0.1,0.6-0.1v5.2h-1.5v0.7h-2.4l-0.8,0.8l-0.4,0.4h-2.5
						v-0.4h-1.6v-0.5h-1.4v-0.5h-0.9v-0.5h-1.3v-7.5h0c-0.9-0.5-1.7-1.1-2.5-1.7v2l0,0h-2v1h-4.4v-0.6h-2.9v3.8h-0.6v1.3h-0.6v0.5
						h-1.8v0.8l0,0h-3.7l0,0V24H-53v-1.2h-0.8v-3.8c-0.3,0.1-0.5,0.1-0.8,0.2V25H-61v5.3h-7.2v-5.1h-4.9V14.1
						c-2.4-1.9-3.8-3.6-3.8-3.6c-0.3,0-0.6,0-0.9,0v15.9h-2.4v0.7h-1.6v0.6h-1.9v2.1l-1.4,1.1h-3.4l-1.1-0.7v7.3h-1.8v1.2h-2.2v-1.3
						h-0.9v-2.5h-1v-0.5h-0.9v-1.2h-2.3v3.6h-2.8v5.9h-1.8v0.7l-1.5,1.6v1h-0.8v-1l-1.5-1.2v-0.7h-1.6v-6.5h-0.5V20.8h-0.9v11.4
						h-0.8v6.4l-0.9,0.4h-6.3v-9.7l-3.2,3.1l-0.4,16.9l-0.7,0.7h-5.3V34.8h-1.9v-1h-1V9.4l-0.7,0.5l-1.7,17.9
						c-0.1,1.6-0.2,3.2-0.3,4.8l-0.1,3c0,1.2,0,2.5,0.1,3.7c0.1,1.9,0.5,3.8,0.7,5.6c0.2,1.9,0.5,3.8,0.7,5.6c1,0.2,2.6,0.5,2.6,1.1
						c-0.2,0.4-0.8,0.5-1.3,0.6c-1.5,0.4-3,0.5-4.9,0.5c-2,0-3.6-0.2-5.3-0.5c-0.3-0.1-1.1-0.4-1.1-0.7c0-0.4,0.8-0.7,1.2-0.8
						c0.6-0.2,1.1-0.3,1.7-0.3c0.3-1.8,0.5-3.6,0.8-5.4c0.3-1.8,0.7-3.5,0.9-5.3c0.1-1,0-2,0.1-3c0.1-2.2,0.1-4.3,0-6.4l-0.2-1.9
						c0-0.1,0-0.3-0.1-0.4h0l-2.1-18.3l-0.9-0.8h0.9V8.6l-0.9-0.1l0.1-0.5l0.4-0.5l-0.7-4.8v35.2l-1.9,1.6v3h-2.3l-0.8,1h-1.9l0.4-1
						h-3.3v-4.9h-1.3v-6.4h-2.3l-1.3,0.4h-3v6.2h-1v1.8h-1l-1.3,1h-2l-1.1-0.8h-1.1v-1.5l-0.4-0.4v-1.5h-0.9v-0.7h-2.3V-2.5h51.6h0
						l0,7.9c0,0.3,0.7,7.1,3.5,7.7l0,0c0,0,0.1,0,0.3,0c0.6,0.6,1.3,1.1,2,1.3l0.2,0.1l0-0.1c0.5-0.2,3-1.3,3.3-1.5
						c0.7,1.7,1.6,3.2,3,3.5l0,0c0,0,0.1,0,0.3,0c0.8,0.8,1.6,1.3,2.5,1.6l0.2,0.1l0.1-0.1c0.6-0.3,3.7-1.6,4-1.8c0,0,0,0,0.1-0.1
						c0,0,0,0,0,0c0.2,0.1,0.4,0.1,0.5,0.1c0.1,0,0.3,0,0.5-0.1c0.2-0.1,0.5-0.4,0.7-0.9l0.1,0l0-0.1c0.4-0.8,0.8-2,1.1-4.1
						c0.1,0.1,0.3,0.1,0.5,0.1c0.1,0,0.2,0,0.4-0.1c0.2-0.1,0.4-0.3,0.6-0.7l0.1,0l0-0.1c0.3-0.6,0.6-1.5,0.8-2.9
						c0.5,1.1,1.2,2,2.1,2.2l0,0c0,0,0.1,0,0.3,0c0.6,0.6,1.3,1,2,1.3l0.1,0l0-0.1c0.5-0.2,2.9-1.3,3.2-1.4c0,0,0,0,0.1,0
						c0,0,0,0,0,0c0.1,0.1,0.3,0.1,0.4,0.1c0.1,0,0.2,0,0.4-0.1c0.2-0.1,0.4-0.3,0.6-0.7l0.1,0l0-0.1c0.4-0.8,0.8-2.2,1.1-4.7
						c0.2-0.6,0.1-2.1,0.1-2.1v-3.9h61.6l0,0h14.3v15.2L-9.3,12.8z"/>
				</g>
				<g id="g9449" transform="translate(250.3835,114.486)">
					<path id="path9451" class="st1" d="M-11.6,0c0,0,0.1,0,0.1,0.1l-0.6,0.8c0,0,0,0-0.1,0l0,0c0,0,0,0,0,0
						c-0.1-0.1-0.3-0.2-0.4-0.3C-12.1,0.3-11.7,0.1-11.6,0"/>
				</g>
				<g id="g9453" transform="translate(245.1033,114.8094)">
					<path id="path9455" class="st1" d="M-11.6,0c0.2,0.1,0.7,0.1,1.3,0.1L-10.8,1C-11.1,0.7-11.3,0.4-11.6,0"/>
				</g>
				<g id="g9457" transform="translate(246.1468,116.1362)">
					<path id="path9459" class="st1" d="M-11.6,0C-11.6,0-11.6,0-11.6,0l0.7-1.3c0.3,0,0.5-0.1,0.8-0.2c0,0.1,0,0.1,0,0.2
						c-0.4,0.6-0.8,1-1.1,1.2C-11.4-0.1-11.5,0-11.6,0"/>
				</g>
				<g id="g9461" transform="translate(247.7671,116.3082)">
					<path id="path9463" class="st1" d="M-11.6,0c0,0.3,0.1,0.6,0.1,0.8l0,0l0,0.1c0,0.1,0,0.1,0,0.2c-0.5-0.2-1-0.5-1.4-0.9
						C-12.5,0.1-12.1,0.1-11.6,0"/>
				</g>
				<g id="g9465" transform="translate(249.9584,115.8072)">
					<path id="path9467" class="st1" d="M-11.6,0C-11.5,0-11.5,0-11.6,0c-0.1,0.2-0.2,0.3-0.3,0.4L-11.6,0z"/>
				</g>
				<g id="g9469" transform="translate(246.8672,110.7364)">
					<path id="path9471" class="st1" d="M-11.6,0c0.1-0.5,0.2-1.1,0.2-1.5c0,0.1,0,0.3,0,0.4c0,0.5,0,1,0.1,1.5l-0.6,0.5
						C-11.7,0.6-11.6,0.3-11.6,0"/>
				</g>
				<g id="g9473" transform="translate(245.4315,114.537)">
					<path id="path9475" class="st1" d="M-11.6,0c0.1-0.1,0.2-0.2,0.2-0.3L-9.9-1L-10.4,0C-10.9,0.1-11.3,0-11.6,0"/>
				</g>
				<g id="g9477" transform="translate(246.5175,112.2803)">
					<path id="path9479" class="st1" d="M-11.6,0l0.8-0.8c0,0.5,0.1,1,0.1,1.5l-1.4,0.7C-11.9,1.1-11.7,0.6-11.6,0"/>
				</g>
				<g id="g9481" transform="translate(250.8574,114.3499)">
					<path id="path9483" class="st1" d="M-11.6,0c-0.5-1.6-0.8-3.9-1-5l0-8.3h0.3l0,9.4C-12.2-3.7-12-1.9-11.6,0
						C-11.5,0-11.5,0-11.6,0"/>
				</g>
				<g id="g9485" transform="translate(247.7037,107.3051)">
					<path id="path9487" class="st1" d="M-11.6,0v-6.3h1.5v8.4c-0.1,0.9-0.3,1.7-0.5,2.4C-11.3,2.5-11.6,0.1-11.6,0"/>
				</g>
				<g id="g9489" transform="translate(250.3419,115.9874)">
					<path id="path9491" class="st1" d="M-11.6,0c0.1,0,0.2,0.1,0.3,0.1l-0.7,0.2C-11.8,0.2-11.7,0.1-11.6,0"/>
				</g>
				<g id="g9493" transform="translate(250.1727,115.5306)">
					<path id="path9495" class="st1" d="M-11.6,0l0.5-0.6c0,0.1,0,0.1,0.1,0.1C-11.2-0.3-11.3-0.1-11.6,0C-11.5,0-11.5,0-11.6,0"/>
				</g>
				<g id="g9497" transform="translate(250.8888,115.3816)">
					<path id="path9499" class="st1" d="M-11.6,0c0.1,0.2,0.2,0.4,0.3,0.5c-0.2,0-0.4-0.1-0.6-0.2C-11.8,0.2-11.7,0.1-11.6,0"/>
				</g>
				<g id="g9501" transform="translate(251.405,114.1763)">
					<path id="path9503" class="st1" d="M-11.6,0C-11.6,0-11.6,0-11.6,0c-0.1-0.2-0.2-0.5-0.2-0.8C-11.7-0.5-11.6-0.3-11.6,0
						C-11.5,0-11.6,0-11.6,0"/>
				</g>
				<g id="g9505" transform="translate(252.1261,114.6504)">
					<path id="path9507" class="st1" d="M-11.6,0c0,0,0-0.1,0-0.1l0.5,0.8l-0.1,0.1C-11.3,0.5-11.5,0.2-11.6,0"/>
				</g>
				<g id="g9509" transform="translate(256.9658,119.1243)">
					<path id="path9511" class="st1" d="M-11.6,0c-0.2,0-0.4,0.1-0.6,0.1c0.2-0.1,0.4-0.2,0.6-0.3C-11.6-0.1-11.6-0.1-11.6,0"/>
				</g>
				<g id="g9513" transform="translate(257.2886,112.7401)">
					<path id="path9515" class="st1" d="M-11.6,0c0.1,0.1,0.1,0.1,0.2,0.2c0.1,0.4,0.2,0.7,0.4,1c-0.2-0.2-0.4-0.3-0.6-0.6L-11.6,0z
						"/>
				</g>
				<g id="g9517" transform="translate(255.54,114.6052)">
					<path id="path9519" class="st1" d="M-11.6,0l1-0.9c0.1,0.6,0.1,1.2,0.2,1.8l-1.8,0.9C-12,1.3-11.8,0.7-11.6,0"/>
				</g>
				<g id="g9521" transform="translate(258.8898,120.3858)">
					<path id="path9523" class="st1" d="M-11.6,0c0,0,0.1,0,0.1,0l0.3-0.1C-11.3-0.1-11.4-0.1-11.6,0"/>
				</g>
				<g id="g9525" transform="translate(258.1369,114.732)">
					<path id="path9527" class="st1" d="M-11.6,0c-0.1,0.5-0.3,0.9-0.4,1.3c-0.3-0.7-0.6-1.5-0.7-2.5c0.3,0.4,0.7,0.8,1.1,1
						C-11.6-0.1-11.6-0.1-11.6,0"/>
				</g>
				<g id="g9529" transform="translate(254.2092,117.3701)">
					<path id="path9531" class="st1" d="M-11.6,0c0.1-0.1,0.2-0.2,0.3-0.3l1.8-0.9L-10.2,0C-10.7,0.1-11.2,0.1-11.6,0"/>
				</g>
				<g id="g9533" transform="translate(256.1431,117.3183)">
					<path id="path9535" class="st1" d="M-11.6,0l0.6-1.1c0,0.3,0.1,0.6,0.1,0.9C-11.1-0.1-11.3-0.1-11.6,0"/>
				</g>
				<g id="g9537" transform="translate(256.8131,112.8596)">
					<path id="path9539" class="st1" d="M-11.6,0c0-0.3-0.1-0.7-0.1-1c0.1,0.1,0.2,0.2,0.2,0.3L-11.6,0C-11.5,0-11.6,0-11.6,0"/>
				</g>
				<g id="g9541" transform="translate(258.5356,117.3971)">
					<path id="path9543" class="st1" d="M-11.6,0c-0.2-0.2-0.3-0.4-0.4-0.6c0.2-0.2,0.4-0.4,0.7-0.6C-11.4-0.8-11.5-0.4-11.6,0"/>
				</g>
				<g id="g9545" transform="translate(256.6831,110.9518)">
					<path id="path9547" class="st1" d="M-11.6,0c0-0.3,0-0.6,0-0.9c0.1,0.5,0.2,1,0.3,1.6C-11.4,0.4-11.5,0.2-11.6,0"/>
				</g>
				<g id="g9549" transform="translate(256.9589,118.511)">
					<path id="path9551" class="st1" d="M-11.6,0c-0.1,0-0.2,0.1-0.3,0.1c0.1-0.1,0.1-0.2,0.2-0.3C-11.6-0.1-11.6,0-11.6,0"/>
				</g>
				<g id="g9553" transform="translate(258.9068,114.7691)">
					<path id="path9555" class="st1" d="M-11.6,0c0,0.1-0.1,0.3-0.1,0.4c-0.1-0.2-0.2-0.3-0.3-0.5c0,0,0.1,0,0.2,0
						C-11.7-0.1-11.6,0-11.6,0"/>
				</g>
				<g id="g9557" transform="translate(258.7308,111.6241)">
					<path id="path9559" class="st1" d="M-11.6,0C-11.6,0-11.5,0-11.6,0L-11.6,0C-11.6,0.1-11.6,0-11.6,0"/>
				</g>
				<g id="g9561" transform="translate(258.9503,117.5241)">
					<path id="path9563" class="st1" d="M-11.6,0c0.1-0.4,0.2-0.8,0.2-1.2c0.2,0.3,0.5,0.5,0.7,0.7C-10.9-0.3-11.2-0.2-11.6,0"/>
				</g>
				<g id="g9565" transform="translate(260.7222,115.3238)">
					<path id="path9567" class="st1" d="M-11.6,0L-11.6,0L-11.6,0c0,0.2,0,0.2,0,0.3c-0.1-0.1-0.2-0.1-0.4-0.2
						C-12-0.2-12-0.5-12.1-0.8c0.1,0,0.3,0,0.4-0.1C-11.6-0.5-11.6-0.2-11.6,0"/>
				</g>
				<g id="g9569" transform="translate(260.3076,116.8285)">
					<path id="path9571" class="st1" d="M-11.6,0c-0.4-0.3-0.8-0.6-1.1-1.1c0-0.2,0-0.4,0.1-0.6c0.2,0.2,0.5,0.3,0.7,0.5
						C-11.8-0.8-11.7-0.4-11.6,0"/>
				</g>
				<g id="g9573" transform="translate(258.348,113.6723)">
					<path id="path9575" class="st1" d="M-11.6,0c-0.2-0.2-0.3-0.4-0.5-0.7c0,0,0-0.1,0-0.1c0.2,0,0.4,0.1,0.7,0.1
						C-11.5-0.5-11.5-0.2-11.6,0"/>
				</g>
				<g id="g9577" transform="translate(258.9471,114.239)">
					<path id="path9579" class="st1" d="M-11.6,0C-11.6,0-11.7,0-11.6,0c-0.1,0-0.1,0-0.1,0l0.1-0.1C-11.6-0.1-11.6-0.1-11.6,0"/>
				</g>
				<g id="g9581" transform="translate(258.8442,113.4182)">
					<path id="path9583" class="st1" d="M-11.6,0c0-0.1,0.1-0.2,0.1-0.3c0,0.1,0.1,0.1,0.1,0.2L-11.6,0z"/>
				</g>
				<g id="g9585" transform="translate(258.6682,118.6985)">
					<path id="path9587" class="st1" d="M-11.6,0c0-0.1,0.1-0.3,0.1-0.4c0.1,0.1,0.2,0.2,0.3,0.3C-11.3-0.1-11.4-0.1-11.6,0"/>
				</g>
				<g id="g9589" transform="translate(258.7106,112.1282)">
					<path id="path9591" class="st1" d="M-11.6,0c0,0.2-0.1,0.3-0.1,0.5c-0.2,0-0.3,0-0.5-0.1c0.1-0.1,0.2-0.2,0.3-0.3L-11.6,0z"/>
				</g>
				<g id="g9593" transform="translate(258.3618,115.2748)">
					<path id="path9595" class="st1" d="M-11.6,0c0.1,0.2,0.2,0.3,0.3,0.5l0-0.1c-0.2,0.2-0.4,0.4-0.6,0.6
						C-11.8,0.7-11.7,0.4-11.6,0"/>
				</g>
				<g id="g9597" transform="translate(260.0648,118.6396)">
					<path id="path9599" class="st1" d="M-11.6,0c0,0-0.1,0-0.1-0.1l0.6-0.8c0,0.1,0,0.1,0.1,0.2C-11.2-0.5-11.3-0.2-11.6,0"/>
				</g>
				<g id="g9601" transform="translate(260.8961,118.4059)">
					<path id="path9603" class="st1" d="M-11.6,0c0.1,0.2,0.2,0.4,0.4,0.6c-0.2,0-0.5-0.1-0.7-0.2C-11.8,0.3-11.7,0.1-11.6,0"/>
				</g>
				<g id="g9605" transform="translate(261.1994,118.0439)">
					<path id="path9607" class="st1" d="M-11.6,0c0.2-0.3,0.4-0.5,0.6-0.8c0.1-0.1,0.2-0.1,0.2-0.2c-0.1,0.7-0.3,1.3-0.4,1.8
						C-11.3,0.6-11.4,0.3-11.6,0"/>
				</g>
				<g id="g9609" transform="translate(261.0806,117.2307)">
					<path id="path9611" class="st1" d="M-11.6,0c-0.1,0-0.1-0.1-0.2-0.1c-0.1-0.4-0.2-0.8-0.4-1.3c0.1,0.1,0.3,0.1,0.5,0.2l0.2,0.1
						l0-0.1c0.2-0.1,0.8-0.3,1.4-0.6c-0.3,0.5-0.7,1-1,1.5C-11.3-0.2-11.5-0.1-11.6,0"/>
				</g>
				<g id="g9613" transform="translate(262.4506,117.3409)">
					<path id="path9615" class="st1" d="M-11.6,0l0.6,1l-0.9,0.3C-11.8,1-11.7,0.5-11.6,0"/>
				</g>
				<g id="g9617" transform="translate(262.4156,119.1944)">
					<path id="path9619" class="st1" d="M-11.6,0l-0.1,0l0,0c-0.1,0-0.2,0-0.2,0l0.8-0.3c-0.1,0.1-0.2,0.2-0.2,0.2
						C-11.5,0-11.5,0-11.6,0"/>
				</g>
				<g id="g9621" transform="translate(258.2006,120.1964)">
					<path id="path9623" class="st1" d="M-11.6,0c0.1-0.3,0.2-0.6,0.3-1c0.2-0.1,0.5-0.2,0.7-0.3L-11.6,0L-11.6,0z"/>
				</g>
				<g id="g9625" transform="translate(260.2768,117.307)">
					<path id="path9627" class="st1" d="M-11.6,0c0,0,0.1,0.1,0.1,0.1l-0.8,1c0,0-0.1,0-0.1-0.1l0,0c0,0,0,0,0,0
						c-0.2-0.1-0.3-0.2-0.5-0.4C-12.2,0.3-11.7,0.1-11.6,0"/>
				</g>
				<g id="g9629" transform="translate(260.1676,119.1481)">
					<path id="path9631" class="st1" d="M-11.6,0c0.1,0.1,0.3,0.1,0.4,0.1L-12,0.4C-11.8,0.3-11.7,0.1-11.6,0"/>
				</g>
				<g id="g9633" transform="translate(259.6978,118.9267)">
					<path id="path9635" class="st1" d="M-11.6,0C-11.5,0-11.5,0-11.6,0c-0.1,0.2-0.2,0.3-0.4,0.5L-11.6,0z"/>
				</g>
				<g id="g9637" transform="translate(263.8769,113.5424)">
					<path id="path9639" class="st1" d="M-11.6,0c0,0.1,0.1,0.1,0.1,0.2c0,0.1-0.1,0.1-0.1,0.2c-0.1,0-0.1,0-0.2-0.1
						C-11.7,0.2-11.6,0.1-11.6,0"/>
				</g>
				<g id="g9641" transform="translate(262.5482,116.6272)">
					<path id="path9643" class="st1" d="M-11.6,0c0.2-0.2,0.5-0.5,0.8-0.8c0.2-0.3,0.5-0.7,0.8-1.1C-10-1.9-10-2-9.9-2
						c-0.3,1.7-0.6,2.7-0.9,3.4L-11.6,0z"/>
				</g>
				<g id="g9645" transform="translate(255.1217,106.6192)">
					<path id="path9647" class="st1" d="M-11.6,0l0-5.6h0.9v7.5c0,0.2,0,0.5-0.1,0.7C-11.3,1.2-11.5,0.2-11.6,0"/>
				</g>
				<g id="g9649" transform="translate(255.8313,110.3842)">
					<path id="path9651" class="st1" d="M-11.6,0c-0.1-0.4-0.2-0.8-0.3-1.2c0.1,0.3,0.2,0.6,0.3,0.9C-11.5-0.2-11.6-0.1-11.6,0"/>
				</g>
				<g id="g9653" transform="translate(256.1324,111.3469)">
					<path id="path9655" class="st1" d="M-11.6,0c0-0.2,0.1-0.4,0.1-0.5c0,0.2,0,0.3,0,0.5c0,0,0,0,0,0.1L-11.6,0
						C-11.6,0-11.6,0-11.6,0"/>
				</g>
				<g id="g9657" transform="translate(258.068,112.0171)">
					<path id="path9659" class="st1" d="M-11.6,0L-11.6,0c-0.1,0.2-0.2,0.3-0.4,0.4c-0.6-2-0.7-3.8-0.7-3.9V-11h1.9v9.3
						C-11-1-11.3-0.4-11.6,0L-11.6,0z"/>
				</g>
				<g id="g9661" transform="translate(259.665,101.0207)">
					<path id="path9663" class="st1" d="M-11.6,0L-11.6,0l0,4c0,0.2,0,0.4-0.1,0.6L-11.6,0z"/>
				</g>
				<g id="g9665" transform="translate(264.177,113.3202)">
					<path id="path9667" class="st1" d="M-11.6,0c0-0.1-0.1-0.1-0.1-0.2c0.1-0.1,0.2-0.2,0.2-0.3C-11.5-0.3-11.5-0.1-11.6,0"/>
				</g>
				<g id="g9669" transform="translate(255.968,112.7131)">
					<path id="path9671" class="st1" d="M-11.6,0c0-0.2,0.1-0.4,0.1-0.6c0.1,0.2,0.2,0.5,0.3,0.7c0,0.1,0,0.3,0,0.4l-0.7,0.7
						C-11.7,0.8-11.6,0.4-11.6,0"/>
				</g>
				<g id="g9673" transform="translate(260.4846,104.9716)">
					<path id="path9675" class="st1" d="M-11.6,0v-4h1.6v6.2c-0.1,1-0.3,1.8-0.5,2.6C-11.3,2.7-11.6,0.1-11.6,0"/>
				</g>
				<path id="path9677" class="st1" d="M312.3,115.1h-2.5v3.1h2.5V115.1z"/>
			</g>
		</g>
	</g>
</g>
</svg>
